{"glyphs":{"0":{"ha":1240,"x_min":0,"x_max":0,"o":"m 850 0 b 1157 236 1072 0 1157 96 l 1157 742 b 850 978 1157 882 1072 978 l 390 978 b 83 742 168 978 83 882 l 83 236 b 390 0 83 96 168 0 z m 972 235 b 850 144 972 176 933 144 l 390 144 b 268 235 307 144 268 176 l 268 743 b 390 833 268 801 307 833 l 850 833 b 972 743 933 833 972 801 z "},"1":{"ha":546,"x_min":0,"x_max":0,"o":"m 454 0 l 454 978 l 197 978 l 7 763 l 201 763 l 269 840 l 269 0 z "},"2":{"ha":1164,"x_min":0,"x_max":0,"o":"m 1085 0 l 1085 144 l 258 144 l 258 358 b 381 449 258 417 297 449 l 778 449 b 1085 685 1000 449 1085 544 l 1085 742 b 778 978 1085 882 1000 978 l 126 978 l 126 833 l 778 833 b 900 743 861 833 900 801 l 900 683 b 778 593 900 625 861 593 l 381 593 b 74 357 158 593 74 497 l 74 0 z "},"3":{"ha":1124,"x_min":0,"x_max":0,"o":"m 731 0 b 1040 211 972 0 1040 100 l 1040 371 b 913 531 1040 465 986 511 b 1028 693 982 544 1028 608 l 1028 767 b 728 978 1028 897 944 978 l 75 978 l 75 833 l 728 833 b 843 757 814 833 843 811 l 843 672 b 728 596 843 618 814 596 l 117 596 l 117 451 l 731 451 b 856 368 804 451 856 429 l 856 246 b 731 144 856 167 804 144 l 75 144 l 75 0 z "},"4":{"ha":1224,"x_min":0,"x_max":0,"o":"m 1089 0 l 1089 167 l 1192 167 l 1192 311 l 1089 311 l 1089 978 l 904 978 l 904 311 l 242 311 l 739 978 l 539 978 l 22 283 l 22 167 l 904 167 l 904 0 z "},"5":{"ha":1160,"x_min":0,"x_max":0,"o":"m 783 0 b 1090 236 1006 0 1090 96 l 1090 408 b 783 644 1090 549 1006 644 l 269 644 l 269 833 l 1058 833 l 1058 978 l 85 978 l 85 500 l 783 500 b 906 410 867 500 906 468 l 906 235 b 783 144 906 176 867 144 l 85 144 l 85 0 z "},"6":{"ha":1271,"x_min":0,"x_max":0,"o":"m 885 0 b 1192 236 1107 0 1192 96 l 1192 394 b 885 631 1192 535 1107 631 l 268 631 l 268 743 b 390 833 268 801 307 833 l 1146 833 l 1146 978 l 390 978 b 83 742 168 978 83 882 l 83 236 b 390 0 83 96 168 0 z m 1007 235 b 885 144 1007 176 968 144 l 390 144 b 268 235 307 144 268 176 l 268 486 l 885 486 b 1007 396 968 486 1007 454 z "},"7":{"ha":1167,"x_min":0,"x_max":0,"o":"m 489 0 l 1140 861 l 1140 978 l 46 978 l 46 833 l 932 833 l 279 0 z "},"8":{"ha":1279,"x_min":0,"x_max":0,"o":"m 886 0 b 1196 211 1128 0 1196 100 l 1196 371 b 1068 531 1196 465 1142 511 b 1183 693 1138 544 1183 608 l 1183 767 b 883 978 1183 897 1100 978 l 396 978 b 96 767 179 978 96 897 l 96 693 b 211 531 96 608 142 544 b 83 371 138 511 83 465 l 83 211 b 393 0 83 100 151 0 z m 1011 246 b 886 144 1011 167 960 144 l 393 144 b 268 246 319 144 268 167 l 268 368 b 393 451 268 429 319 451 l 886 451 b 1011 368 960 451 1011 429 z m 999 672 b 883 596 999 618 969 596 l 396 596 b 281 672 310 596 281 618 l 281 757 b 396 833 281 811 310 833 l 883 833 b 999 757 969 833 999 811 z "},"9":{"ha":1275,"x_min":0,"x_max":0,"o":"m 885 0 b 1192 236 1107 0 1192 96 l 1192 742 b 885 978 1192 882 1107 978 l 390 978 b 83 742 168 978 83 882 l 83 608 b 390 372 83 468 168 372 l 1007 372 l 1007 235 b 885 144 1007 176 968 144 l 136 144 l 136 0 z m 1007 517 l 390 517 b 268 607 307 517 268 549 l 268 743 b 390 833 268 801 307 833 l 885 833 b 1007 743 968 833 1007 801 z "},"\u0017":{"ha":694,"x_min":0,"x_max":0,"o":""}," ":{"ha":694,"x_min":0,"x_max":0,"o":""},"!":{"ha":381,"x_min":0,"x_max":0,"o":"m 271 0 l 271 181 l 108 181 l 108 0 z m 254 278 l 296 978 l 83 978 l 125 278 z "},"\"":{"ha":574,"x_min":0,"x_max":0,"o":"m 175 667 l 228 810 l 228 978 l 83 978 l 83 811 l 132 667 z m 435 667 l 479 814 l 479 978 l 336 978 l 336 814 l 375 667 z "},"#":{"ha":819,"x_min":0,"x_max":0,"o":"m 490 411 l 338 411 l 338 583 l 490 583 z m 615 0 l 615 286 l 754 286 l 754 411 l 615 411 l 615 583 l 754 583 l 754 708 l 615 708 l 615 978 l 490 978 l 490 708 l 338 708 l 338 978 l 213 978 l 213 708 l 74 708 l 74 583 l 213 583 l 213 411 l 74 411 l 74 286 l 213 286 l 213 0 l 338 0 l 338 286 l 490 286 l 490 0 z "},"$":{"ha":811,"x_min":0,"x_max":0,"o":"m 494 0 l 494 160 l 532 160 b 765 343 701 160 765 235 l 765 389 b 532 572 765 497 701 572 l 303 572 b 231 621 253 572 231 590 l 231 663 b 303 710 231 693 253 710 l 726 710 l 726 844 l 494 844 l 494 978 l 349 978 l 349 844 l 303 844 b 68 661 132 844 68 769 l 68 622 b 303 438 68 513 132 438 l 532 438 b 601 390 581 438 601 419 l 601 342 b 532 294 601 311 581 294 l 92 294 l 92 160 l 349 160 l 349 0 z "},"%":{"ha":1419,"x_min":0,"x_max":0,"o":"m 467 503 b 619 621 578 503 619 550 l 619 874 b 467 992 619 943 578 992 l 236 992 b 83 874 125 992 83 943 l 83 621 b 236 503 83 550 125 503 z m 528 619 b 467 575 528 590 508 575 l 236 575 b 175 619 194 575 175 590 l 175 874 b 236 919 175 903 194 919 l 467 919 b 528 874 508 919 528 903 z m 264 -42 l 1269 1033 l 1154 1033 l 150 -42 z m 1183 -14 b 1336 104 1294 -14 1336 33 l 1336 357 b 1183 475 1336 426 1294 475 l 953 475 b 800 357 842 475 800 426 l 800 104 b 953 -14 800 33 842 -14 z m 1244 103 b 1183 58 1244 74 1225 58 l 953 58 b 892 103 911 58 892 74 l 892 357 b 953 403 892 386 911 403 l 1183 403 b 1244 357 1225 403 1244 386 z "},"&":{"ha":1149,"x_min":0,"x_max":0,"o":"m 1008 0 l 1008 451 l 1128 451 l 1128 596 l 396 596 b 281 672 310 596 281 618 l 281 757 b 396 833 281 811 310 833 l 839 833 l 839 978 l 396 978 b 96 767 179 978 96 897 l 96 693 b 211 531 96 608 142 544 b 83 371 138 511 83 465 l 83 211 b 393 0 83 100 151 0 z m 824 144 l 393 144 b 268 246 319 144 268 167 l 268 368 b 393 451 268 429 319 451 l 824 451 z "},"'":{"ha":349,"x_min":0,"x_max":0,"o":"m 204 667 l 254 810 l 254 978 l 83 978 l 83 811 l 132 667 z "},"(":{"ha":418,"x_min":0,"x_max":0,"o":"m 404 -151 b 226 492 279 94 226 297 b 401 1131 226 679 285 892 l 272 1131 b 111 493 167 907 111 700 b 276 -151 111 281 160 79 z "},")":{"ha":418,"x_min":0,"x_max":0,"o":"m 142 -151 b 307 493 258 79 307 281 b 146 1131 307 700 251 907 l 17 1131 b 192 492 133 892 192 679 b 14 -151 192 297 139 94 z "},"*":{"ha":590,"x_min":0,"x_max":0,"o":"m 486 617 l 361 743 l 543 779 l 507 892 l 342 817 l 364 989 l 224 989 l 250 818 l 88 893 l 46 782 l 226 740 l 100 619 l 207 540 l 296 689 l 374 539 z "},"+":{"ha":754,"x_min":0,"x_max":0,"o":"m 428 183 l 428 453 l 697 453 l 697 556 l 428 556 l 428 825 l 325 825 l 325 556 l 56 556 l 56 453 l 325 453 l 325 183 z "},",":{"ha":374,"x_min":0,"x_max":0,"o":"m 157 -101 l 274 97 l 274 181 l 83 181 l 83 -101 z "},"-":{"ha":579,"x_min":0,"x_max":0,"o":"m 549 446 l 549 600 l 29 600 l 29 446 z "},".":{"ha":396,"x_min":0,"x_max":0,"o":"m 301 0 l 301 181 l 83 181 l 83 0 z "},"/":{"ha":675,"x_min":0,"x_max":0,"o":"m 132 -56 l 671 1033 l 549 1033 l 10 -56 z "},":":{"ha":351,"x_min":0,"x_max":0,"o":"m 271 556 l 271 736 l 81 736 l 81 556 z m 271 0 l 271 181 l 81 181 l 81 0 z "},";":{"ha":367,"x_min":0,"x_max":0,"o":"m 278 556 l 278 736 l 88 736 l 88 556 z m 161 -101 l 278 97 l 278 181 l 88 181 l 88 -101 z "},"<":{"ha":746,"x_min":0,"x_max":0,"o":"m 657 128 l 657 249 l 208 504 l 657 758 l 657 879 l 88 551 l 88 460 z "},"=":{"ha":746,"x_min":0,"x_max":0,"o":"m 697 592 l 697 694 l 56 694 l 56 592 z m 697 314 l 697 417 l 56 417 l 56 314 z "},">":{"ha":746,"x_min":0,"x_max":0,"o":"m 657 460 l 657 551 l 88 879 l 88 758 l 536 504 l 88 249 l 88 128 z "},"?":{"ha":935,"x_min":0,"x_max":0,"o":"m 915 742 b 608 978 915 882 831 978 l 64 978 l 64 833 l 608 833 b 731 743 692 833 731 801 l 731 683 b 608 593 731 625 692 593 l 486 593 b 178 357 264 593 178 497 l 178 272 l 335 272 l 335 358 b 457 449 335 417 374 449 l 608 449 b 915 685 831 449 915 544 z m 335 0 l 335 181 l 178 181 l 178 0 z "},"@":{"ha":1244,"x_min":0,"x_max":0,"o":"m 1156 -200 l 1156 -56 l 390 -56 b 268 35 307 -56 268 -24 l 268 743 b 390 833 268 801 307 833 l 854 833 b 976 743 938 833 976 801 l 976 675 l 732 675 b 425 439 510 675 425 579 l 425 346 b 732 110 425 206 510 110 l 854 110 b 1161 346 1076 110 1161 206 l 1161 742 b 854 978 1161 882 1076 978 l 390 978 b 83 742 168 978 83 882 l 83 36 b 390 -200 83 -104 168 -200 z m 976 344 b 854 254 976 286 938 254 l 732 254 b 610 344 649 254 610 286 l 610 440 b 732 531 610 499 649 531 l 976 531 z "},"A":{"ha":1431,"x_min":0,"x_max":0,"o":"m 1431 0 l 785 978 l 650 978 l 0 0 l 206 0 l 718 788 l 1222 0 z "},"B":{"ha":1282,"x_min":0,"x_max":0,"o":"m 889 0 b 1199 211 1131 0 1199 100 l 1199 354 b 1071 514 1199 449 1144 494 b 1186 676 1140 528 1186 592 l 1186 767 b 886 978 1186 897 1103 978 l 90 978 l 90 0 z m 1014 246 b 889 144 1014 167 963 144 l 275 144 l 275 435 l 889 435 b 1014 351 963 435 1014 413 z m 1001 656 b 886 579 1001 601 972 579 l 275 579 l 275 833 l 886 833 b 1001 757 972 833 1001 811 z "},"C":{"ha":1243,"x_min":0,"x_max":0,"o":"m 1178 0 l 1178 144 l 390 144 b 268 235 307 144 268 176 l 268 743 b 390 833 268 801 307 833 l 1178 833 l 1178 978 l 390 978 b 83 742 168 978 83 882 l 83 236 b 390 0 83 96 168 0 z "},"D":{"ha":1431,"x_min":0,"x_max":0,"o":"m 986 0 b 1347 279 1263 0 1347 96 l 1347 689 b 986 978 1347 882 1263 978 l 90 978 l 90 0 z m 1163 281 b 986 144 1163 176 1124 144 l 275 144 l 275 833 l 986 833 b 1163 689 1124 833 1163 801 z "},"E":{"ha":1163,"x_min":0,"x_max":0,"o":"m 1096 0 l 1096 144 l 275 144 l 275 444 l 1054 444 l 1054 589 l 275 589 l 275 833 l 1096 833 l 1096 978 l 90 978 l 90 0 z "},"F":{"ha":1106,"x_min":0,"x_max":0,"o":"m 1040 403 l 1040 547 l 275 547 l 275 833 l 1096 833 l 1096 978 l 90 978 l 90 0 l 275 0 l 275 403 z "},"G":{"ha":1293,"x_min":0,"x_max":0,"o":"m 864 0 b 1213 208 1096 0 1213 69 l 1213 533 l 1028 533 l 1028 208 b 864 144 1028 165 974 144 l 432 144 b 268 211 322 144 268 167 l 268 767 b 432 833 268 811 322 833 l 1197 833 l 1197 978 l 432 978 b 83 767 200 978 83 907 l 83 211 b 432 0 83 71 200 0 z "},"H":{"ha":1350,"x_min":0,"x_max":0,"o":"m 1260 0 l 1260 978 l 1075 978 l 1075 589 l 275 589 l 275 978 l 90 978 l 90 0 l 275 0 l 275 444 l 1075 444 l 1075 0 z "},"I":{"ha":379,"x_min":0,"x_max":0,"o":"m 282 0 l 282 978 l 97 978 l 97 0 z "},"J":{"ha":672,"x_min":0,"x_max":0,"o":"m 281 0 b 586 208 497 0 586 88 l 586 978 l 401 978 l 401 208 b 281 144 401 165 365 144 l 13 144 l 13 0 z "},"K":{"ha":1193,"x_min":0,"x_max":0,"o":"m 1175 0 l 742 522 l 1176 978 l 957 978 l 589 581 l 275 581 l 275 978 l 90 978 l 90 0 l 275 0 l 275 436 l 593 436 l 963 0 z "},"L":{"ha":1108,"x_min":0,"x_max":0,"o":"m 1069 0 l 1069 144 l 276 144 l 276 978 l 90 978 l 90 0 z "},"M":{"ha":1669,"x_min":0,"x_max":0,"o":"m 1579 0 l 1579 978 l 1421 978 l 843 179 l 263 978 l 90 978 l 90 0 l 261 0 l 261 683 l 760 0 l 911 0 l 1408 685 l 1408 0 z "},"N":{"ha":1475,"x_min":0,"x_max":0,"o":"m 1385 0 l 1385 978 l 1224 978 l 1224 251 l 250 978 l 90 978 l 90 0 l 251 0 l 251 761 l 1294 0 z "},"O":{"ha":1426,"x_min":0,"x_max":0,"o":"m 1036 0 b 1343 236 1258 0 1343 96 l 1343 742 b 1036 978 1343 882 1258 978 l 390 978 b 83 742 168 978 83 882 l 83 236 b 390 0 83 96 168 0 z m 1158 235 b 1036 144 1158 176 1119 144 l 390 144 b 268 235 307 144 268 176 l 268 743 b 390 833 268 801 307 833 l 1036 833 b 1158 743 1119 833 1158 801 z "},"P":{"ha":1238,"x_min":0,"x_max":0,"o":"m 892 361 b 1199 597 1114 361 1199 457 l 1199 742 b 892 978 1199 882 1114 978 l 90 978 l 90 0 l 275 0 l 275 361 z m 1014 596 b 892 506 1014 538 975 506 l 275 506 l 275 833 l 892 833 b 1014 743 975 833 1014 801 z "},"Q":{"ha":1426,"x_min":0,"x_max":0,"o":"m 1211 -217 l 1086 1 b 1343 236 1271 15 1343 107 l 1343 742 b 1036 978 1343 882 1258 978 l 390 978 b 83 742 168 978 83 882 l 83 236 b 390 0 83 96 168 0 l 896 0 l 1014 -217 z m 1158 235 b 1036 144 1158 176 1119 144 l 390 144 b 268 235 307 144 268 176 l 268 743 b 390 833 268 801 307 833 l 1036 833 b 1158 743 1119 833 1158 801 z "},"R":{"ha":1286,"x_min":0,"x_max":0,"o":"m 1217 0 l 986 439 b 1228 672 1160 456 1228 546 l 1228 742 b 921 978 1228 882 1143 978 l 90 978 l 90 0 l 275 0 l 275 436 l 790 436 l 1019 0 z m 1043 671 b 921 581 1043 613 1004 581 l 275 581 l 275 833 l 921 833 b 1043 743 1004 833 1043 801 z "},"S":{"ha":1321,"x_min":0,"x_max":0,"o":"m 953 0 b 1260 236 1175 0 1260 96 l 1260 357 b 953 593 1260 497 1175 593 l 378 593 b 256 683 294 593 256 625 l 256 743 b 378 833 256 801 294 833 l 1206 833 l 1206 978 l 378 978 b 71 742 156 978 71 882 l 71 685 b 378 449 71 544 156 449 l 953 449 b 1075 358 1036 449 1075 417 l 1075 235 b 953 144 1075 176 1036 144 l 103 144 l 103 0 z "},"T":{"ha":1261,"x_min":0,"x_max":0,"o":"m 729 0 l 729 833 l 1228 833 l 1228 978 l 32 978 l 32 833 l 544 833 l 544 0 z "},"U":{"ha":1393,"x_min":0,"x_max":0,"o":"m 1039 0 b 1307 236 1261 0 1307 96 l 1307 978 l 1122 978 l 1122 235 b 1000 144 1122 176 1083 144 l 393 144 b 271 235 310 144 271 176 l 271 978 l 86 978 l 86 236 b 393 0 86 96 171 0 z "},"V":{"ha":1431,"x_min":0,"x_max":0,"o":"m 785 0 l 1431 978 l 1226 978 l 721 190 l 210 978 l 0 978 l 650 0 z "},"W":{"ha":1860,"x_min":0,"x_max":0,"o":"m 1408 0 l 1860 978 l 1681 978 l 1338 228 l 999 978 l 861 978 l 518 228 l 178 978 l 0 978 l 450 0 l 585 0 l 931 750 l 1269 0 z "},"X":{"ha":1383,"x_min":0,"x_max":0,"o":"m 1367 0 l 810 496 l 1364 978 l 1126 978 l 692 586 l 257 978 l 17 978 l 575 489 l 17 0 l 258 0 l 692 390 l 1128 0 z "},"Y":{"ha":1436,"x_min":0,"x_max":0,"o":"m 813 0 l 813 397 l 1436 978 l 1203 978 l 719 531 l 236 978 l 0 978 l 628 397 l 628 0 z "},"Z":{"ha":1432,"x_min":0,"x_max":0,"o":"m 1381 0 l 1381 158 l 388 158 l 1381 853 l 1381 978 l 67 978 l 67 819 l 1056 819 l 67 125 l 67 0 z "},"[":{"ha":378,"x_min":0,"x_max":0,"o":"m 340 -153 l 340 -53 l 238 -53 l 238 1028 l 340 1028 l 340 1131 l 108 1131 l 108 -153 z "},"\\":{"ha":675,"x_min":0,"x_max":0,"o":"m 671 -56 l 132 1033 l 10 1033 l 549 -56 z "},"]":{"ha":375,"x_min":0,"x_max":0,"o":"m 267 -153 l 267 1131 l 35 1131 l 35 1028 l 138 1028 l 138 -53 l 35 -53 l 35 -153 z "},"^":{"ha":893,"x_min":0,"x_max":0,"o":"m 818 408 l 490 978 l 399 978 l 67 408 l 188 408 l 443 857 l 697 408 z "},"_":{"ha":904,"x_min":0,"x_max":0,"o":"m 904 -194 l 904 -78 l 0 -78 l 0 -194 z "},"`":{"ha":594,"x_min":0,"x_max":0,"o":"m 525 1049 l 525 1164 l 69 1260 l 69 1103 z "},"a":{"ha":1431,"x_min":0,"x_max":0,"o":"m 1431 0 l 785 978 l 650 978 l 0 0 l 206 0 l 718 788 l 1222 0 z "},"b":{"ha":1282,"x_min":0,"x_max":0,"o":"m 889 0 b 1199 211 1131 0 1199 100 l 1199 354 b 1071 514 1199 449 1144 494 b 1186 676 1140 528 1186 592 l 1186 767 b 886 978 1186 897 1103 978 l 90 978 l 90 0 z m 1014 246 b 889 144 1014 167 963 144 l 275 144 l 275 435 l 889 435 b 1014 351 963 435 1014 413 z m 1001 656 b 886 579 1001 601 972 579 l 275 579 l 275 833 l 886 833 b 1001 757 972 833 1001 811 z "},"c":{"ha":1243,"x_min":0,"x_max":0,"o":"m 1178 0 l 1178 144 l 390 144 b 268 235 307 144 268 176 l 268 743 b 390 833 268 801 307 833 l 1178 833 l 1178 978 l 390 978 b 83 742 168 978 83 882 l 83 236 b 390 0 83 96 168 0 z "},"d":{"ha":1431,"x_min":0,"x_max":0,"o":"m 986 0 b 1347 279 1263 0 1347 96 l 1347 689 b 986 978 1347 882 1263 978 l 90 978 l 90 0 z m 1163 281 b 986 144 1163 176 1124 144 l 275 144 l 275 833 l 986 833 b 1163 689 1124 833 1163 801 z "},"e":{"ha":1163,"x_min":0,"x_max":0,"o":"m 1096 0 l 1096 144 l 275 144 l 275 444 l 1054 444 l 1054 589 l 275 589 l 275 833 l 1096 833 l 1096 978 l 90 978 l 90 0 z "},"f":{"ha":1106,"x_min":0,"x_max":0,"o":"m 1040 403 l 1040 547 l 275 547 l 275 833 l 1096 833 l 1096 978 l 90 978 l 90 0 l 275 0 l 275 403 z "},"g":{"ha":1293,"x_min":0,"x_max":0,"o":"m 864 0 b 1213 208 1096 0 1213 69 l 1213 533 l 1028 533 l 1028 208 b 864 144 1028 165 974 144 l 432 144 b 268 211 322 144 268 167 l 268 767 b 432 833 268 811 322 833 l 1197 833 l 1197 978 l 432 978 b 83 767 200 978 83 907 l 83 211 b 432 0 83 71 200 0 z "},"h":{"ha":1350,"x_min":0,"x_max":0,"o":"m 1260 0 l 1260 978 l 1075 978 l 1075 589 l 275 589 l 275 978 l 90 978 l 90 0 l 275 0 l 275 444 l 1075 444 l 1075 0 z "},"i":{"ha":379,"x_min":0,"x_max":0,"o":"m 282 0 l 282 978 l 97 978 l 97 0 z "},"j":{"ha":672,"x_min":0,"x_max":0,"o":"m 281 0 b 586 208 497 0 586 88 l 586 978 l 401 978 l 401 208 b 281 144 401 165 365 144 l 13 144 l 13 0 z "},"k":{"ha":1193,"x_min":0,"x_max":0,"o":"m 1175 0 l 742 522 l 1176 978 l 957 978 l 589 581 l 275 581 l 275 978 l 90 978 l 90 0 l 275 0 l 275 436 l 593 436 l 963 0 z "},"l":{"ha":1108,"x_min":0,"x_max":0,"o":"m 1069 0 l 1069 144 l 276 144 l 276 978 l 90 978 l 90 0 z "},"m":{"ha":1669,"x_min":0,"x_max":0,"o":"m 1579 0 l 1579 978 l 1421 978 l 843 179 l 263 978 l 90 978 l 90 0 l 261 0 l 261 683 l 760 0 l 911 0 l 1408 685 l 1408 0 z "},"n":{"ha":1475,"x_min":0,"x_max":0,"o":"m 1385 0 l 1385 978 l 1224 978 l 1224 251 l 250 978 l 90 978 l 90 0 l 251 0 l 251 761 l 1294 0 z "},"o":{"ha":1426,"x_min":0,"x_max":0,"o":"m 1036 0 b 1343 236 1258 0 1343 96 l 1343 742 b 1036 978 1343 882 1258 978 l 390 978 b 83 742 168 978 83 882 l 83 236 b 390 0 83 96 168 0 z m 1158 235 b 1036 144 1158 176 1119 144 l 390 144 b 268 235 307 144 268 176 l 268 743 b 390 833 268 801 307 833 l 1036 833 b 1158 743 1119 833 1158 801 z "},"p":{"ha":1238,"x_min":0,"x_max":0,"o":"m 892 361 b 1199 597 1114 361 1199 457 l 1199 742 b 892 978 1199 882 1114 978 l 90 978 l 90 0 l 275 0 l 275 361 z m 1014 596 b 892 506 1014 538 975 506 l 275 506 l 275 833 l 892 833 b 1014 743 975 833 1014 801 z "},"q":{"ha":1426,"x_min":0,"x_max":0,"o":"m 1211 -217 l 1086 1 b 1343 236 1271 15 1343 107 l 1343 742 b 1036 978 1343 882 1258 978 l 390 978 b 83 742 168 978 83 882 l 83 236 b 390 0 83 96 168 0 l 896 0 l 1014 -217 z m 1158 235 b 1036 144 1158 176 1119 144 l 390 144 b 268 235 307 144 268 176 l 268 743 b 390 833 268 801 307 833 l 1036 833 b 1158 743 1119 833 1158 801 z "},"r":{"ha":1286,"x_min":0,"x_max":0,"o":"m 1217 0 l 986 439 b 1228 672 1160 456 1228 546 l 1228 742 b 921 978 1228 882 1143 978 l 90 978 l 90 0 l 275 0 l 275 436 l 790 436 l 1019 0 z m 1043 671 b 921 581 1043 613 1004 581 l 275 581 l 275 833 l 921 833 b 1043 743 1004 833 1043 801 z "},"s":{"ha":1321,"x_min":0,"x_max":0,"o":"m 953 0 b 1260 236 1175 0 1260 96 l 1260 357 b 953 593 1260 497 1175 593 l 378 593 b 256 683 294 593 256 625 l 256 743 b 378 833 256 801 294 833 l 1206 833 l 1206 978 l 378 978 b 71 742 156 978 71 882 l 71 685 b 378 449 71 544 156 449 l 953 449 b 1075 358 1036 449 1075 417 l 1075 235 b 953 144 1075 176 1036 144 l 103 144 l 103 0 z "},"t":{"ha":1261,"x_min":0,"x_max":0,"o":"m 729 0 l 729 833 l 1228 833 l 1228 978 l 32 978 l 32 833 l 544 833 l 544 0 z "},"u":{"ha":1393,"x_min":0,"x_max":0,"o":"m 1039 0 b 1307 236 1261 0 1307 96 l 1307 978 l 1122 978 l 1122 235 b 1000 144 1122 176 1083 144 l 393 144 b 271 235 310 144 271 176 l 271 978 l 86 978 l 86 236 b 393 0 86 96 171 0 z "},"v":{"ha":1431,"x_min":0,"x_max":0,"o":"m 785 0 l 1431 978 l 1226 978 l 721 190 l 210 978 l 0 978 l 650 0 z "},"w":{"ha":1860,"x_min":0,"x_max":0,"o":"m 1408 0 l 1860 978 l 1681 978 l 1338 228 l 999 978 l 861 978 l 518 228 l 178 978 l 0 978 l 450 0 l 585 0 l 931 750 l 1269 0 z "},"x":{"ha":1383,"x_min":0,"x_max":0,"o":"m 1367 0 l 810 496 l 1364 978 l 1126 978 l 692 586 l 257 978 l 17 978 l 575 489 l 17 0 l 258 0 l 692 390 l 1128 0 z "},"y":{"ha":1436,"x_min":0,"x_max":0,"o":"m 813 0 l 813 397 l 1436 978 l 1203 978 l 719 531 l 236 978 l 0 978 l 628 397 l 628 0 z "},"z":{"ha":1432,"x_min":0,"x_max":0,"o":"m 1381 0 l 1381 158 l 388 158 l 1381 853 l 1381 978 l 67 978 l 67 819 l 1056 819 l 67 125 l 67 0 z "},"{":{"ha":408,"x_min":0,"x_max":0,"o":"m 371 -153 l 371 -64 b 268 -25 303 -64 268 -51 l 268 358 b 175 486 268 413 238 454 b 268 617 238 518 268 563 l 268 1003 b 371 1042 268 1029 303 1042 l 371 1131 l 307 1131 b 139 975 194 1131 139 1079 l 139 617 b 36 536 139 563 104 536 l 36 440 b 139 358 104 440 139 413 l 139 3 b 307 -153 139 -101 194 -153 z "},"|":{"ha":449,"x_min":0,"x_max":0,"o":"m 289 -153 l 289 1131 l 160 1131 l 160 -153 z "},"}":{"ha":410,"x_min":0,"x_max":0,"o":"m 108 -153 b 276 3 221 -153 276 -101 l 276 358 b 379 440 276 413 311 440 l 379 536 b 276 617 311 536 276 563 l 276 975 b 108 1131 276 1079 221 1131 l 44 1131 l 44 1042 b 147 1003 113 1042 147 1029 l 147 617 b 240 486 147 563 178 518 b 147 358 178 454 147 413 l 147 -25 b 44 -64 147 -51 113 -64 l 44 -153 z "},"~":{"ha":754,"x_min":0,"x_max":0,"o":"m 697 567 b 533 529 660 546 600 529 b 219 574 421 529 333 574 b 56 542 156 574 97 564 l 56 456 b 219 493 90 476 153 493 b 533 450 333 493 424 450 b 697 482 597 450 656 458 z "}," ":{"ha":694,"x_min":0,"x_max":0,"o":""},"¡":{"ha":381,"x_min":0,"x_max":0,"o":"m 108 978 l 108 797 l 271 797 l 271 978 z m 125 700 l 83 0 l 296 0 l 254 700 z "},"¢":{"ha":764,"x_min":0,"x_max":0,"o":"m 693 121 l 693 254 l 317 254 b 247 303 269 254 247 272 l 247 663 b 317 710 247 693 269 710 l 693 710 l 693 844 l 510 844 l 510 978 l 364 978 l 364 844 l 317 844 b 83 661 147 844 83 769 l 83 304 b 317 121 83 194 147 121 l 364 121 l 364 0 l 510 0 l 510 121 z "},"£":{"ha":1015,"x_min":0,"x_max":0,"o":"m 961 0 l 961 144 l 346 144 l 346 444 l 644 444 l 644 589 l 346 589 l 346 743 b 472 833 346 811 400 833 l 933 833 l 933 978 l 472 978 b 161 743 278 978 161 907 l 161 589 l 58 589 l 58 444 l 161 444 l 161 144 l 51 144 l 51 0 z "},"¥":{"ha":1100,"x_min":0,"x_max":0,"o":"m 976 154 l 976 283 l 646 283 l 646 382 l 976 382 l 976 511 l 714 511 l 1054 978 l 869 978 l 551 543 l 232 978 l 44 978 l 386 511 l 128 511 l 128 382 l 457 382 l 457 283 l 128 283 l 128 154 l 457 154 l 457 0 l 646 0 l 646 154 z "},"¦":{"ha":449,"x_min":0,"x_max":0,"o":"m 289 -153 l 289 429 l 160 429 l 160 -153 z m 289 1131 l 160 1131 l 160 558 l 289 558 z "},"§":{"ha":803,"x_min":0,"x_max":0,"o":"m 276 0 b 511 183 447 0 511 75 l 511 272 l 535 272 b 769 456 706 272 769 347 l 769 522 b 536 706 769 631 706 706 l 471 706 l 471 796 b 543 843 471 826 493 843 l 694 843 l 694 978 l 543 978 b 308 794 372 978 308 903 l 308 706 l 285 706 b 50 522 114 706 50 631 l 50 456 b 283 272 50 347 114 272 l 349 272 l 349 182 b 276 135 349 151 326 135 l 125 135 l 125 0 z m 607 454 b 535 407 607 424 585 407 l 283 407 b 214 454 235 407 214 425 l 214 524 b 286 571 214 554 236 571 l 538 571 b 607 524 586 571 607 553 z "},"¨":{"ha":707,"x_min":0,"x_max":0,"o":"m 260 1094 l 260 1275 l 69 1275 l 69 1094 z m 638 1094 l 638 1275 l 447 1275 l 447 1094 z "},"©":{"ha":1140,"x_min":0,"x_max":0,"o":"m 922 286 b 757 128 922 181 868 128 l 351 128 b 197 286 249 128 197 181 l 197 706 b 351 858 197 807 249 858 l 757 858 b 922 706 868 858 922 807 z m 757 1 b 1042 286 947 1 1042 97 l 1042 706 b 757 976 1042 886 947 976 l 351 976 b 83 706 174 976 83 886 l 83 286 b 351 1 83 97 174 1 z m 792 235 l 792 329 l 503 329 b 424 388 449 329 424 349 l 424 606 b 503 664 424 644 449 664 l 792 664 l 792 758 l 503 758 b 304 606 358 758 304 696 l 304 388 b 503 235 304 297 358 235 z "},"ª":{"ha":869,"x_min":0,"x_max":0,"o":"m 828 417 l 474 954 l 399 954 l 42 417 l 154 417 l 436 850 l 714 417 z "},"«":{"ha":836,"x_min":0,"x_max":0,"o":"m 764 267 l 764 385 l 554 504 l 764 622 l 764 742 l 433 551 l 433 460 z m 403 267 l 403 385 l 193 504 l 403 622 l 403 742 l 72 551 l 72 460 z "},"®":{"ha":915,"x_min":0,"x_max":0,"o":"m 746 432 b 615 307 746 349 703 307 l 294 307 b 174 432 214 307 174 349 l 174 763 b 294 883 174 843 214 883 l 615 883 b 746 763 703 883 746 843 z m 615 207 b 840 432 765 207 840 282 l 840 763 b 615 976 840 906 765 976 l 294 976 b 83 763 154 976 83 906 l 83 432 b 294 207 83 282 154 207 z m 650 411 l 572 581 b 647 669 613 588 647 618 l 647 693 b 535 789 647 757 610 789 l 288 789 l 288 411 l 374 411 l 374 576 l 479 576 l 557 411 z m 560 664 b 535 646 560 651 551 646 l 374 646 l 374 713 l 535 713 b 560 693 551 713 560 706 z "},"¯":{"ha":594,"x_min":0,"x_max":0,"o":"m 525 1097 l 525 1213 l 69 1213 l 69 1097 z "},"°":{"ha":451,"x_min":0,"x_max":0,"o":"m 319 829 b 243 756 319 781 293 756 b 168 832 193 756 168 782 b 243 907 168 882 193 907 b 319 829 293 907 319 882 z m 243 671 b 404 832 350 671 404 725 b 243 992 404 938 350 992 b 83 832 138 992 83 938 b 243 671 83 725 138 671 z "},"±":{"ha":754,"x_min":0,"x_max":0,"o":"m 428 183 l 428 453 l 697 453 l 697 556 l 428 556 l 428 825 l 325 825 l 325 556 l 56 556 l 56 453 l 325 453 l 325 183 z m 697 0 l 697 103 l 56 103 l 56 0 z "},"²":{"ha":624,"x_min":0,"x_max":0,"o":"m 563 503 l 563 575 l 150 575 l 150 682 b 211 726 150 711 169 726 l 410 726 b 563 844 521 726 563 775 l 563 874 b 410 992 563 943 521 992 l 83 992 l 83 919 l 410 919 b 471 874 451 919 471 903 l 471 844 b 410 799 471 815 451 799 l 211 799 b 57 681 100 799 57 751 l 57 503 z "},"³":{"ha":603,"x_min":0,"x_max":0,"o":"m 386 503 b 540 608 507 503 540 553 l 540 688 b 476 768 540 735 514 758 b 535 849 511 775 535 807 l 535 886 b 385 992 535 951 493 992 l 58 992 l 58 919 l 385 919 b 442 881 428 919 442 908 l 442 839 b 385 800 442 811 428 800 l 79 800 l 79 728 l 386 728 b 449 686 422 728 449 717 l 449 625 b 386 575 449 586 422 575 l 58 575 l 58 503 z "},"´":{"ha":593,"x_min":0,"x_max":0,"o":"m 524 1103 l 524 1260 l 69 1164 l 69 1049 z "},"¶":{"ha":985,"x_min":0,"x_max":0,"o":"m 893 -153 l 893 978 l 371 978 b 22 722 139 978 22 893 l 207 722 b 369 833 207 796 261 832 l 369 -153 l 556 -153 l 556 722 l 708 722 l 708 -153 z "},"·":{"ha":396,"x_min":0,"x_max":0,"o":"m 301 417 l 301 597 l 83 597 l 83 417 z "},"¸":{"ha":329,"x_min":0,"x_max":0,"o":"m 143 -333 l 260 -135 l 260 -51 l 69 -51 l 69 -333 z "},"¹":{"ha":314,"x_min":0,"x_max":0,"o":"m 247 503 l 247 992 l 119 992 l 24 883 l 121 883 l 156 922 l 156 503 z "},"º":{"ha":868,"x_min":0,"x_max":0,"o":"m 611 417 b 781 547 733 417 781 469 l 781 825 b 611 954 781 901 733 954 l 257 954 b 88 825 135 954 88 901 l 88 547 b 257 417 88 469 135 417 z m 679 546 b 611 496 679 514 657 496 l 257 496 b 189 546 211 496 189 514 l 189 825 b 257 875 189 857 211 875 l 611 875 b 679 825 657 875 679 857 z "},"»":{"ha":836,"x_min":0,"x_max":0,"o":"m 764 460 l 764 551 l 433 742 l 433 622 l 643 504 l 433 385 l 433 267 z m 403 460 l 403 551 l 72 742 l 72 622 l 282 504 l 72 385 l 72 267 z "},"¼":{"ha":1413,"x_min":0,"x_max":0,"o":"m 451 503 l 451 992 l 324 992 l 228 883 l 325 883 l 360 922 l 360 503 z m 197 -42 l 1203 1033 l 1088 1033 l 83 -42 z m 1278 -14 l 1278 69 l 1329 69 l 1329 142 l 1278 142 l 1278 475 l 1185 475 l 1185 142 l 854 142 l 1103 475 l 1003 475 l 744 128 l 744 69 l 1185 69 l 1185 -14 z "},"½":{"ha":1414,"x_min":0,"x_max":0,"o":"m 451 503 l 451 992 l 324 992 l 228 883 l 325 883 l 360 922 l 360 503 z m 197 -42 l 1203 1033 l 1088 1033 l 83 -42 z m 1331 -14 l 1331 58 l 918 58 l 918 165 b 979 210 918 194 938 210 l 1178 210 b 1331 328 1289 210 1331 258 l 1331 357 b 1178 475 1331 426 1289 475 l 851 475 l 851 403 l 1178 403 b 1239 357 1219 403 1239 386 l 1239 328 b 1178 282 1239 299 1219 282 l 979 282 b 825 164 868 282 825 235 l 825 -14 z "},"¾":{"ha":1397,"x_min":0,"x_max":0,"o":"m 411 503 b 565 608 532 503 565 553 l 565 688 b 501 768 565 735 539 758 b 560 849 536 775 560 807 l 560 886 b 410 992 560 951 518 992 l 83 992 l 83 919 l 410 919 b 467 881 453 919 467 908 l 467 839 b 410 800 467 811 453 800 l 104 800 l 104 728 l 411 728 b 474 686 447 728 474 717 l 474 625 b 411 575 474 586 447 575 l 83 575 l 83 503 z m 251 -42 l 1257 1033 l 1142 1033 l 138 -42 z m 1263 -14 l 1263 69 l 1314 69 l 1314 142 l 1263 142 l 1263 475 l 1169 475 l 1169 142 l 839 142 l 1088 475 l 988 475 l 729 128 l 729 69 l 1169 69 l 1169 -14 z "},"¿":{"ha":935,"x_min":0,"x_max":0,"o":"m 19 236 b 326 0 19 96 104 0 l 871 0 l 871 144 l 326 144 b 204 235 243 144 204 176 l 204 294 b 326 385 204 353 243 385 l 449 385 b 757 621 671 385 757 481 l 757 706 l 600 706 l 600 619 b 478 529 600 561 561 529 l 326 529 b 19 293 104 529 19 433 z m 600 978 l 600 797 l 757 797 l 757 978 z "},"À":{"ha":1431,"x_min":0,"x_max":0,"o":"m 1431 0 l 785 978 l 650 978 l 0 0 l 206 0 l 718 788 l 1222 0 z m 901 1049 l 901 1164 l 446 1260 l 446 1103 z "},"Á":{"ha":1431,"x_min":0,"x_max":0,"o":"m 1431 0 l 785 978 l 650 978 l 0 0 l 206 0 l 718 788 l 1222 0 z m 983 1103 l 983 1260 l 529 1164 l 529 1049 z "},"Â":{"ha":1431,"x_min":0,"x_max":0,"o":"m 1431 0 l 785 978 l 650 978 l 0 0 l 206 0 l 718 788 l 1222 0 z m 958 1049 l 815 1260 l 615 1260 l 471 1049 l 624 1049 l 707 1189 l 721 1189 l 807 1049 z "},"Ã":{"ha":1431,"x_min":0,"x_max":0,"o":"m 1431 0 l 785 978 l 650 978 l 0 0 l 206 0 l 718 788 l 1222 0 z m 943 1228 b 826 1178 917 1200 874 1178 b 604 1236 747 1178 685 1236 b 488 1194 558 1236 517 1224 l 488 1079 b 604 1129 513 1107 557 1129 b 826 1072 685 1129 749 1072 b 943 1114 872 1072 914 1083 z "},"Ä":{"ha":1431,"x_min":0,"x_max":0,"o":"m 1431 0 l 785 978 l 650 978 l 0 0 l 206 0 l 718 788 l 1222 0 z m 621 1094 l 621 1275 l 431 1275 l 431 1094 z m 999 1094 l 999 1275 l 808 1275 l 808 1094 z "},"Å":{"ha":1431,"x_min":0,"x_max":0,"o":"m 1431 0 l 785 978 l 650 978 l 0 0 l 206 0 l 718 788 l 1222 0 z m 831 1171 b 786 1126 831 1142 815 1126 l 642 1126 b 599 1171 613 1126 599 1142 l 599 1206 b 642 1250 599 1235 613 1250 l 786 1250 b 831 1206 815 1250 831 1235 z m 936 1207 b 776 1329 936 1289 883 1329 l 651 1329 b 494 1207 547 1329 494 1289 l 494 1169 b 651 1049 494 1089 547 1049 l 776 1049 b 936 1169 883 1049 936 1089 z "},"Æ":{"ha":2075,"x_min":0,"x_max":0,"o":"m 2008 0 l 2008 144 l 1188 144 l 1188 444 l 1967 444 l 1967 589 l 1188 589 l 1188 833 l 2008 833 l 2008 978 l 1032 978 l 0 0 l 243 0 l 1003 715 l 1003 0 z "},"Ç":{"ha":1243,"x_min":0,"x_max":0,"o":"m 1178 0 l 1178 144 l 390 144 b 268 235 307 144 268 176 l 268 743 b 390 833 268 801 307 833 l 1178 833 l 1178 978 l 390 978 b 83 742 168 978 83 882 l 83 236 b 390 0 83 96 168 0 z m 628 -333 l 744 -135 l 744 -51 l 554 -51 l 554 -333 z "},"È":{"ha":1163,"x_min":0,"x_max":0,"o":"m 1096 0 l 1096 144 l 275 144 l 275 444 l 1054 444 l 1054 589 l 275 589 l 275 833 l 1096 833 l 1096 978 l 90 978 l 90 0 z m 767 1049 l 767 1164 l 311 1260 l 311 1103 z "},"É":{"ha":1163,"x_min":0,"x_max":0,"o":"m 1096 0 l 1096 144 l 275 144 l 275 444 l 1054 444 l 1054 589 l 275 589 l 275 833 l 1096 833 l 1096 978 l 90 978 l 90 0 z m 850 1103 l 850 1260 l 396 1164 l 396 1049 z "},"Ê":{"ha":1163,"x_min":0,"x_max":0,"o":"m 1096 0 l 1096 144 l 275 144 l 275 444 l 1054 444 l 1054 589 l 275 589 l 275 833 l 1096 833 l 1096 978 l 90 978 l 90 0 z m 839 1049 l 696 1260 l 496 1260 l 351 1049 l 504 1049 l 588 1189 l 601 1189 l 688 1049 z "},"Ë":{"ha":1163,"x_min":0,"x_max":0,"o":"m 1096 0 l 1096 144 l 275 144 l 275 444 l 1054 444 l 1054 589 l 275 589 l 275 833 l 1096 833 l 1096 978 l 90 978 l 90 0 z m 501 1094 l 501 1275 l 311 1275 l 311 1094 z m 879 1094 l 879 1275 l 689 1275 l 689 1094 z "},"Ì":{"ha":379,"x_min":0,"x_max":0,"o":"m 282 0 l 282 978 l 97 978 l 97 0 z m 376 1049 l 376 1164 l -79 1260 l -79 1103 z "},"Í":{"ha":379,"x_min":0,"x_max":0,"o":"m 282 0 l 282 978 l 97 978 l 97 0 z m 458 1103 l 458 1260 l 4 1164 l 4 1049 z "},"Î":{"ha":379,"x_min":0,"x_max":0,"o":"m 282 0 l 282 978 l 97 978 l 97 0 z m 433 1049 l 290 1260 l 90 1260 l -54 1049 l 99 1049 l 182 1189 l 196 1189 l 282 1049 z "},"Ï":{"ha":379,"x_min":0,"x_max":0,"o":"m 282 0 l 282 978 l 97 978 l 97 0 z m 96 1094 l 96 1275 l -94 1275 l -94 1094 z m 474 1094 l 474 1275 l 283 1275 l 283 1094 z "},"Ð":{"ha":1431,"x_min":0,"x_max":0,"o":"m 986 0 b 1347 279 1263 0 1347 96 l 1347 689 b 986 978 1347 882 1263 978 l 90 978 l 90 589 l 0 589 l 0 444 l 90 444 l 90 0 z m 1163 281 b 986 144 1163 176 1124 144 l 275 144 l 275 444 l 721 444 l 721 589 l 275 589 l 275 833 l 986 833 b 1163 689 1124 833 1163 801 z "},"Ñ":{"ha":1475,"x_min":0,"x_max":0,"o":"m 1385 0 l 1385 978 l 1224 978 l 1224 251 l 250 978 l 90 978 l 90 0 l 251 0 l 251 761 l 1294 0 z m 979 1228 b 863 1178 953 1200 910 1178 b 640 1236 783 1178 721 1236 b 524 1194 594 1236 553 1224 l 524 1079 b 640 1129 549 1107 593 1129 b 863 1072 721 1129 785 1072 b 979 1114 908 1072 950 1083 z "},"Ò":{"ha":1426,"x_min":0,"x_max":0,"o":"m 1036 0 b 1343 236 1258 0 1343 96 l 1343 742 b 1036 978 1343 882 1258 978 l 390 978 b 83 742 168 978 83 882 l 83 236 b 390 0 83 96 168 0 z m 1158 235 b 1036 144 1158 176 1119 144 l 390 144 b 268 235 307 144 268 176 l 268 743 b 390 833 268 801 307 833 l 1036 833 b 1158 743 1119 833 1158 801 z m 899 1049 l 899 1164 l 443 1260 l 443 1103 z "},"Ó":{"ha":1426,"x_min":0,"x_max":0,"o":"m 1036 0 b 1343 236 1258 0 1343 96 l 1343 742 b 1036 978 1343 882 1258 978 l 390 978 b 83 742 168 978 83 882 l 83 236 b 390 0 83 96 168 0 z m 1158 235 b 1036 144 1158 176 1119 144 l 390 144 b 268 235 307 144 268 176 l 268 743 b 390 833 268 801 307 833 l 1036 833 b 1158 743 1119 833 1158 801 z m 982 1103 l 982 1260 l 528 1164 l 528 1049 z "},"Ô":{"ha":1426,"x_min":0,"x_max":0,"o":"m 1036 0 b 1343 236 1258 0 1343 96 l 1343 742 b 1036 978 1343 882 1258 978 l 390 978 b 83 742 168 978 83 882 l 83 236 b 390 0 83 96 168 0 z m 1158 235 b 1036 144 1158 176 1119 144 l 390 144 b 268 235 307 144 268 176 l 268 743 b 390 833 268 801 307 833 l 1036 833 b 1158 743 1119 833 1158 801 z m 957 1049 l 814 1260 l 614 1260 l 469 1049 l 622 1049 l 706 1189 l 719 1189 l 806 1049 z "},"Õ":{"ha":1426,"x_min":0,"x_max":0,"o":"m 1036 0 b 1343 236 1258 0 1343 96 l 1343 742 b 1036 978 1343 882 1258 978 l 390 978 b 83 742 168 978 83 882 l 83 236 b 390 0 83 96 168 0 z m 1158 235 b 1036 144 1158 176 1119 144 l 390 144 b 268 235 307 144 268 176 l 268 743 b 390 833 268 801 307 833 l 1036 833 b 1158 743 1119 833 1158 801 z m 940 1228 b 824 1178 914 1200 871 1178 b 601 1236 744 1178 682 1236 b 485 1194 556 1236 514 1224 l 485 1079 b 601 1129 510 1107 554 1129 b 824 1072 682 1129 746 1072 b 940 1114 869 1072 911 1083 z "},"Ö":{"ha":1426,"x_min":0,"x_max":0,"o":"m 1036 0 b 1343 236 1258 0 1343 96 l 1343 742 b 1036 978 1343 882 1258 978 l 390 978 b 83 742 168 978 83 882 l 83 236 b 390 0 83 96 168 0 z m 1158 235 b 1036 144 1158 176 1119 144 l 390 144 b 268 235 307 144 268 176 l 268 743 b 390 833 268 801 307 833 l 1036 833 b 1158 743 1119 833 1158 801 z m 619 1094 l 619 1275 l 429 1275 l 429 1094 z m 997 1094 l 997 1275 l 807 1275 l 807 1094 z "},"×":{"ha":754,"x_min":0,"x_max":0,"o":"m 640 314 l 449 504 l 640 694 l 567 768 l 376 576 l 186 768 l 113 694 l 304 504 l 113 314 l 186 240 l 376 432 l 567 240 z "},"Ø":{"ha":1426,"x_min":0,"x_max":0,"o":"m 1036 0 b 1343 236 1258 0 1343 96 l 1343 742 b 1197 954 1343 840 1300 917 l 1272 1033 l 1210 1090 l 1101 975 b 1036 978 1081 976 1060 978 l 390 978 b 83 742 168 978 83 882 l 83 236 b 217 28 83 140 122 65 l 153 -42 l 218 -96 l 311 4 b 390 0 336 1 361 0 z m 1158 235 b 1036 144 1158 176 1119 144 l 443 144 l 1082 829 b 1158 743 1133 819 1158 789 z m 332 151 b 268 235 289 164 268 192 l 268 743 b 390 833 268 801 307 833 l 969 833 z "},"Ù":{"ha":1393,"x_min":0,"x_max":0,"o":"m 1039 0 b 1307 236 1261 0 1307 96 l 1307 978 l 1122 978 l 1122 235 b 1000 144 1122 176 1083 144 l 393 144 b 271 235 310 144 271 176 l 271 978 l 86 978 l 86 236 b 393 0 86 96 171 0 z m 882 1049 l 882 1164 l 426 1260 l 426 1103 z "},"Ú":{"ha":1393,"x_min":0,"x_max":0,"o":"m 1039 0 b 1307 236 1261 0 1307 96 l 1307 978 l 1122 978 l 1122 235 b 1000 144 1122 176 1083 144 l 393 144 b 271 235 310 144 271 176 l 271 978 l 86 978 l 86 236 b 393 0 86 96 171 0 z m 965 1103 l 965 1260 l 511 1164 l 511 1049 z "},"Û":{"ha":1393,"x_min":0,"x_max":0,"o":"m 1039 0 b 1307 236 1261 0 1307 96 l 1307 978 l 1122 978 l 1122 235 b 1000 144 1122 176 1083 144 l 393 144 b 271 235 310 144 271 176 l 271 978 l 86 978 l 86 236 b 393 0 86 96 171 0 z m 940 1049 l 797 1260 l 597 1260 l 453 1049 l 606 1049 l 689 1189 l 703 1189 l 789 1049 z "},"Ü":{"ha":1393,"x_min":0,"x_max":0,"o":"m 1039 0 b 1307 236 1261 0 1307 96 l 1307 978 l 1122 978 l 1122 235 b 1000 144 1122 176 1083 144 l 393 144 b 271 235 310 144 271 176 l 271 978 l 86 978 l 86 236 b 393 0 86 96 171 0 z m 603 1094 l 603 1275 l 413 1275 l 413 1094 z m 981 1094 l 981 1275 l 790 1275 l 790 1094 z "},"Ý":{"ha":1436,"x_min":0,"x_max":0,"o":"m 813 0 l 813 397 l 1436 978 l 1203 978 l 719 531 l 236 978 l 0 978 l 628 397 l 628 0 z m 988 1103 l 988 1260 l 533 1164 l 533 1049 z "},"Þ":{"ha":1161,"x_min":0,"x_max":0,"o":"m 803 139 b 1110 375 1025 139 1110 235 l 1110 601 b 803 838 1110 742 1025 838 l 275 838 l 275 978 l 90 978 l 90 0 l 275 0 l 275 139 z m 925 374 b 803 283 925 315 886 283 l 275 283 l 275 693 l 803 693 b 925 603 886 693 925 661 z "},"ß":{"ha":2642,"x_min":0,"x_max":0,"o":"m 953 0 b 1260 236 1175 0 1260 96 l 1260 357 b 953 593 1260 497 1175 593 l 378 593 b 256 683 294 593 256 625 l 256 743 b 378 833 256 801 294 833 l 1206 833 l 1206 978 l 378 978 b 71 742 156 978 71 882 l 71 685 b 378 449 71 544 156 449 l 953 449 b 1075 358 1036 449 1075 417 l 1075 235 b 953 144 1075 176 1036 144 l 103 144 l 103 0 z m 2274 0 b 2581 236 2496 0 2581 96 l 2581 357 b 2274 593 2581 497 2496 593 l 1699 593 b 1576 683 1615 593 1576 625 l 1576 743 b 1699 833 1576 801 1615 833 l 2526 833 l 2526 978 l 1699 978 b 1392 742 1476 978 1392 882 l 1392 685 b 1699 449 1392 544 1476 449 l 2274 449 b 2396 358 2357 449 2396 417 l 2396 235 b 2274 144 2396 176 2357 144 l 1424 144 l 1424 0 z "},"à":{"ha":1431,"x_min":0,"x_max":0,"o":"m 1431 0 l 785 978 l 650 978 l 0 0 l 206 0 l 718 788 l 1222 0 z m 901 1049 l 901 1164 l 446 1260 l 446 1103 z "},"á":{"ha":1431,"x_min":0,"x_max":0,"o":"m 1431 0 l 785 978 l 650 978 l 0 0 l 206 0 l 718 788 l 1222 0 z m 983 1103 l 983 1260 l 529 1164 l 529 1049 z "},"â":{"ha":1431,"x_min":0,"x_max":0,"o":"m 1431 0 l 785 978 l 650 978 l 0 0 l 206 0 l 718 788 l 1222 0 z m 958 1049 l 815 1260 l 615 1260 l 471 1049 l 624 1049 l 707 1189 l 721 1189 l 807 1049 z "},"ã":{"ha":1431,"x_min":0,"x_max":0,"o":"m 1431 0 l 785 978 l 650 978 l 0 0 l 206 0 l 718 788 l 1222 0 z m 943 1228 b 826 1178 917 1200 874 1178 b 604 1236 747 1178 685 1236 b 488 1194 558 1236 517 1224 l 488 1079 b 604 1129 513 1107 557 1129 b 826 1072 685 1129 749 1072 b 943 1114 872 1072 914 1083 z "},"ä":{"ha":1431,"x_min":0,"x_max":0,"o":"m 1431 0 l 785 978 l 650 978 l 0 0 l 206 0 l 718 788 l 1222 0 z m 621 1094 l 621 1275 l 431 1275 l 431 1094 z m 999 1094 l 999 1275 l 808 1275 l 808 1094 z "},"å":{"ha":1431,"x_min":0,"x_max":0,"o":"m 1431 0 l 785 978 l 650 978 l 0 0 l 206 0 l 718 788 l 1222 0 z m 831 1171 b 786 1126 831 1142 815 1126 l 642 1126 b 599 1171 613 1126 599 1142 l 599 1206 b 642 1250 599 1235 613 1250 l 786 1250 b 831 1206 815 1250 831 1235 z m 936 1207 b 776 1329 936 1289 883 1329 l 651 1329 b 494 1207 547 1329 494 1289 l 494 1169 b 651 1049 494 1089 547 1049 l 776 1049 b 936 1169 883 1049 936 1089 z "},"æ":{"ha":2075,"x_min":0,"x_max":0,"o":"m 2008 0 l 2008 144 l 1188 144 l 1188 444 l 1967 444 l 1967 589 l 1188 589 l 1188 833 l 2008 833 l 2008 978 l 1032 978 l 0 0 l 243 0 l 1003 715 l 1003 0 z "},"ç":{"ha":1243,"x_min":0,"x_max":0,"o":"m 1178 0 l 1178 144 l 390 144 b 268 235 307 144 268 176 l 268 743 b 390 833 268 801 307 833 l 1178 833 l 1178 978 l 390 978 b 83 742 168 978 83 882 l 83 236 b 390 0 83 96 168 0 z m 628 -333 l 744 -135 l 744 -51 l 554 -51 l 554 -333 z "},"è":{"ha":1163,"x_min":0,"x_max":0,"o":"m 1096 0 l 1096 144 l 275 144 l 275 444 l 1054 444 l 1054 589 l 275 589 l 275 833 l 1096 833 l 1096 978 l 90 978 l 90 0 z m 767 1049 l 767 1164 l 311 1260 l 311 1103 z "},"é":{"ha":1163,"x_min":0,"x_max":0,"o":"m 1096 0 l 1096 144 l 275 144 l 275 444 l 1054 444 l 1054 589 l 275 589 l 275 833 l 1096 833 l 1096 978 l 90 978 l 90 0 z m 850 1103 l 850 1260 l 396 1164 l 396 1049 z "},"ê":{"ha":1163,"x_min":0,"x_max":0,"o":"m 1096 0 l 1096 144 l 275 144 l 275 444 l 1054 444 l 1054 589 l 275 589 l 275 833 l 1096 833 l 1096 978 l 90 978 l 90 0 z m 839 1049 l 696 1260 l 496 1260 l 351 1049 l 504 1049 l 588 1189 l 601 1189 l 688 1049 z "},"ë":{"ha":1163,"x_min":0,"x_max":0,"o":"m 1096 0 l 1096 144 l 275 144 l 275 444 l 1054 444 l 1054 589 l 275 589 l 275 833 l 1096 833 l 1096 978 l 90 978 l 90 0 z m 501 1094 l 501 1275 l 311 1275 l 311 1094 z m 879 1094 l 879 1275 l 689 1275 l 689 1094 z "},"ì":{"ha":379,"x_min":0,"x_max":0,"o":"m 282 0 l 282 978 l 97 978 l 97 0 z m 376 1049 l 376 1164 l -79 1260 l -79 1103 z "},"í":{"ha":379,"x_min":0,"x_max":0,"o":"m 282 0 l 282 978 l 97 978 l 97 0 z m 458 1103 l 458 1260 l 4 1164 l 4 1049 z "},"î":{"ha":379,"x_min":0,"x_max":0,"o":"m 282 0 l 282 978 l 97 978 l 97 0 z m 433 1049 l 290 1260 l 90 1260 l -54 1049 l 99 1049 l 182 1189 l 196 1189 l 282 1049 z "},"ï":{"ha":379,"x_min":0,"x_max":0,"o":"m 282 0 l 282 978 l 97 978 l 97 0 z m 96 1094 l 96 1275 l -94 1275 l -94 1094 z m 474 1094 l 474 1275 l 283 1275 l 283 1094 z "},"ð":{"ha":1431,"x_min":0,"x_max":0,"o":"m 986 0 b 1347 279 1263 0 1347 96 l 1347 689 b 986 978 1347 882 1263 978 l 90 978 l 90 589 l 0 589 l 0 444 l 90 444 l 90 0 z m 1163 281 b 986 144 1163 176 1124 144 l 275 144 l 275 444 l 721 444 l 721 589 l 275 589 l 275 833 l 986 833 b 1163 689 1124 833 1163 801 z "},"ñ":{"ha":1475,"x_min":0,"x_max":0,"o":"m 1385 0 l 1385 978 l 1224 978 l 1224 251 l 250 978 l 90 978 l 90 0 l 251 0 l 251 761 l 1294 0 z m 979 1228 b 863 1178 953 1200 910 1178 b 640 1236 783 1178 721 1236 b 524 1194 594 1236 553 1224 l 524 1079 b 640 1129 549 1107 593 1129 b 863 1072 721 1129 785 1072 b 979 1114 908 1072 950 1083 z "},"ò":{"ha":1426,"x_min":0,"x_max":0,"o":"m 1036 0 b 1343 236 1258 0 1343 96 l 1343 742 b 1036 978 1343 882 1258 978 l 390 978 b 83 742 168 978 83 882 l 83 236 b 390 0 83 96 168 0 z m 1158 235 b 1036 144 1158 176 1119 144 l 390 144 b 268 235 307 144 268 176 l 268 743 b 390 833 268 801 307 833 l 1036 833 b 1158 743 1119 833 1158 801 z m 899 1049 l 899 1164 l 443 1260 l 443 1103 z "},"ó":{"ha":1426,"x_min":0,"x_max":0,"o":"m 1036 0 b 1343 236 1258 0 1343 96 l 1343 742 b 1036 978 1343 882 1258 978 l 390 978 b 83 742 168 978 83 882 l 83 236 b 390 0 83 96 168 0 z m 1158 235 b 1036 144 1158 176 1119 144 l 390 144 b 268 235 307 144 268 176 l 268 743 b 390 833 268 801 307 833 l 1036 833 b 1158 743 1119 833 1158 801 z m 982 1103 l 982 1260 l 528 1164 l 528 1049 z "},"ô":{"ha":1426,"x_min":0,"x_max":0,"o":"m 1036 0 b 1343 236 1258 0 1343 96 l 1343 742 b 1036 978 1343 882 1258 978 l 390 978 b 83 742 168 978 83 882 l 83 236 b 390 0 83 96 168 0 z m 1158 235 b 1036 144 1158 176 1119 144 l 390 144 b 268 235 307 144 268 176 l 268 743 b 390 833 268 801 307 833 l 1036 833 b 1158 743 1119 833 1158 801 z m 957 1049 l 814 1260 l 614 1260 l 469 1049 l 622 1049 l 706 1189 l 719 1189 l 806 1049 z "},"õ":{"ha":1426,"x_min":0,"x_max":0,"o":"m 1036 0 b 1343 236 1258 0 1343 96 l 1343 742 b 1036 978 1343 882 1258 978 l 390 978 b 83 742 168 978 83 882 l 83 236 b 390 0 83 96 168 0 z m 1158 235 b 1036 144 1158 176 1119 144 l 390 144 b 268 235 307 144 268 176 l 268 743 b 390 833 268 801 307 833 l 1036 833 b 1158 743 1119 833 1158 801 z m 940 1228 b 824 1178 914 1200 871 1178 b 601 1236 744 1178 682 1236 b 485 1194 556 1236 514 1224 l 485 1079 b 601 1129 510 1107 554 1129 b 824 1072 682 1129 746 1072 b 940 1114 869 1072 911 1083 z "},"ö":{"ha":1426,"x_min":0,"x_max":0,"o":"m 1036 0 b 1343 236 1258 0 1343 96 l 1343 742 b 1036 978 1343 882 1258 978 l 390 978 b 83 742 168 978 83 882 l 83 236 b 390 0 83 96 168 0 z m 1158 235 b 1036 144 1158 176 1119 144 l 390 144 b 268 235 307 144 268 176 l 268 743 b 390 833 268 801 307 833 l 1036 833 b 1158 743 1119 833 1158 801 z m 619 1094 l 619 1275 l 429 1275 l 429 1094 z m 997 1094 l 997 1275 l 807 1275 l 807 1094 z "},"÷":{"ha":754,"x_min":0,"x_max":0,"o":"m 697 453 l 697 556 l 56 556 l 56 453 z m 486 708 l 486 889 l 268 889 l 268 708 z m 486 83 l 486 264 l 268 264 l 268 83 z "},"ø":{"ha":1426,"x_min":0,"x_max":0,"o":"m 1036 0 b 1343 236 1258 0 1343 96 l 1343 742 b 1197 954 1343 840 1300 917 l 1272 1033 l 1210 1090 l 1101 975 b 1036 978 1081 976 1060 978 l 390 978 b 83 742 168 978 83 882 l 83 236 b 217 28 83 140 122 65 l 153 -42 l 218 -96 l 311 4 b 390 0 336 1 361 0 z m 1158 235 b 1036 144 1158 176 1119 144 l 443 144 l 1082 829 b 1158 743 1133 819 1158 789 z m 332 151 b 268 235 289 164 268 192 l 268 743 b 390 833 268 801 307 833 l 969 833 z "},"ù":{"ha":1393,"x_min":0,"x_max":0,"o":"m 1039 0 b 1307 236 1261 0 1307 96 l 1307 978 l 1122 978 l 1122 235 b 1000 144 1122 176 1083 144 l 393 144 b 271 235 310 144 271 176 l 271 978 l 86 978 l 86 236 b 393 0 86 96 171 0 z m 882 1049 l 882 1164 l 426 1260 l 426 1103 z "},"ú":{"ha":1393,"x_min":0,"x_max":0,"o":"m 1039 0 b 1307 236 1261 0 1307 96 l 1307 978 l 1122 978 l 1122 235 b 1000 144 1122 176 1083 144 l 393 144 b 271 235 310 144 271 176 l 271 978 l 86 978 l 86 236 b 393 0 86 96 171 0 z m 965 1103 l 965 1260 l 511 1164 l 511 1049 z "},"û":{"ha":1393,"x_min":0,"x_max":0,"o":"m 1039 0 b 1307 236 1261 0 1307 96 l 1307 978 l 1122 978 l 1122 235 b 1000 144 1122 176 1083 144 l 393 144 b 271 235 310 144 271 176 l 271 978 l 86 978 l 86 236 b 393 0 86 96 171 0 z m 940 1049 l 797 1260 l 597 1260 l 453 1049 l 606 1049 l 689 1189 l 703 1189 l 789 1049 z "},"ü":{"ha":1393,"x_min":0,"x_max":0,"o":"m 1039 0 b 1307 236 1261 0 1307 96 l 1307 978 l 1122 978 l 1122 235 b 1000 144 1122 176 1083 144 l 393 144 b 271 235 310 144 271 176 l 271 978 l 86 978 l 86 236 b 393 0 86 96 171 0 z m 603 1094 l 603 1275 l 413 1275 l 413 1094 z m 981 1094 l 981 1275 l 790 1275 l 790 1094 z "},"ý":{"ha":1436,"x_min":0,"x_max":0,"o":"m 813 0 l 813 397 l 1436 978 l 1203 978 l 719 531 l 236 978 l 0 978 l 628 397 l 628 0 z m 988 1103 l 988 1260 l 533 1164 l 533 1049 z "},"þ":{"ha":1161,"x_min":0,"x_max":0,"o":"m 803 139 b 1110 375 1025 139 1110 235 l 1110 601 b 803 838 1110 742 1025 838 l 275 838 l 275 978 l 90 978 l 90 0 l 275 0 l 275 139 z m 925 374 b 803 283 925 315 886 283 l 275 283 l 275 693 l 803 693 b 925 603 886 693 925 661 z "},"ÿ":{"ha":1436,"x_min":0,"x_max":0,"o":"m 813 0 l 813 397 l 1436 978 l 1203 978 l 719 531 l 236 978 l 0 978 l 628 397 l 628 0 z m 624 1094 l 624 1275 l 433 1275 l 433 1094 z m 1001 1094 l 1001 1275 l 811 1275 l 811 1094 z "},"Ā":{"ha":1431,"x_min":0,"x_max":0,"o":"m 1431 0 l 785 978 l 650 978 l 0 0 l 206 0 l 718 788 l 1222 0 z m 943 1097 l 943 1213 l 488 1213 l 488 1097 z "},"ā":{"ha":1431,"x_min":0,"x_max":0,"o":"m 1431 0 l 785 978 l 650 978 l 0 0 l 206 0 l 718 788 l 1222 0 z m 943 1097 l 943 1213 l 488 1213 l 488 1097 z "},"Ă":{"ha":1431,"x_min":0,"x_max":0,"o":"m 1431 0 l 785 978 l 650 978 l 0 0 l 206 0 l 718 788 l 1222 0 z m 763 1049 b 958 1260 907 1049 958 1188 l 807 1260 b 731 1133 807 1218 790 1133 l 708 1133 b 624 1260 642 1133 624 1218 l 471 1260 b 668 1049 471 1188 522 1049 z "},"ă":{"ha":1431,"x_min":0,"x_max":0,"o":"m 1431 0 l 785 978 l 650 978 l 0 0 l 206 0 l 718 788 l 1222 0 z m 763 1049 b 958 1260 907 1049 958 1188 l 807 1260 b 731 1133 807 1218 790 1133 l 708 1133 b 624 1260 642 1133 624 1218 l 471 1260 b 668 1049 471 1188 522 1049 z "},"Ą":{"ha":1431,"x_min":0,"x_max":0,"o":"m 1431 -312 l 1431 -168 l 1283 -168 b 1256 -144 1264 -168 1256 -157 b 1269 -117 1256 -135 1260 -124 l 1431 0 l 785 978 l 650 978 l 0 0 l 206 0 l 718 788 l 1222 0 l 1307 0 l 1197 -81 b 1129 -201 1151 -114 1129 -160 b 1260 -312 1129 -261 1175 -312 z "},"ą":{"ha":1431,"x_min":0,"x_max":0,"o":"m 1431 -312 l 1431 -168 l 1283 -168 b 1256 -144 1264 -168 1256 -157 b 1269 -117 1256 -135 1260 -124 l 1431 0 l 785 978 l 650 978 l 0 0 l 206 0 l 718 788 l 1222 0 l 1307 0 l 1197 -81 b 1129 -201 1151 -114 1129 -160 b 1260 -312 1129 -261 1175 -312 z "},"Ć":{"ha":1243,"x_min":0,"x_max":0,"o":"m 1178 0 l 1178 144 l 390 144 b 268 235 307 144 268 176 l 268 743 b 390 833 268 801 307 833 l 1178 833 l 1178 978 l 390 978 b 83 742 168 978 83 882 l 83 236 b 390 0 83 96 168 0 z m 904 1103 l 904 1260 l 450 1164 l 450 1049 z "},"ć":{"ha":1243,"x_min":0,"x_max":0,"o":"m 1178 0 l 1178 144 l 390 144 b 268 235 307 144 268 176 l 268 743 b 390 833 268 801 307 833 l 1178 833 l 1178 978 l 390 978 b 83 742 168 978 83 882 l 83 236 b 390 0 83 96 168 0 z m 904 1103 l 904 1260 l 450 1164 l 450 1049 z "},"Ċ":{"ha":1243,"x_min":0,"x_max":0,"o":"m 1178 0 l 1178 144 l 390 144 b 268 235 307 144 268 176 l 268 743 b 390 833 268 801 307 833 l 1178 833 l 1178 978 l 390 978 b 83 742 168 978 83 882 l 83 236 b 390 0 83 96 168 0 z m 758 1094 l 758 1275 l 568 1275 l 568 1094 z "},"ċ":{"ha":1243,"x_min":0,"x_max":0,"o":"m 1178 0 l 1178 144 l 390 144 b 268 235 307 144 268 176 l 268 743 b 390 833 268 801 307 833 l 1178 833 l 1178 978 l 390 978 b 83 742 168 978 83 882 l 83 236 b 390 0 83 96 168 0 z m 758 1094 l 758 1275 l 568 1275 l 568 1094 z "},"Č":{"ha":1243,"x_min":0,"x_max":0,"o":"m 1178 0 l 1178 144 l 390 144 b 268 235 307 144 268 176 l 268 743 b 390 833 268 801 307 833 l 1178 833 l 1178 978 l 390 978 b 83 742 168 978 83 882 l 83 236 b 390 0 83 96 168 0 z m 763 1049 l 907 1260 l 756 1260 l 671 1119 l 657 1119 l 572 1260 l 419 1260 l 563 1049 z "},"č":{"ha":1243,"x_min":0,"x_max":0,"o":"m 1178 0 l 1178 144 l 390 144 b 268 235 307 144 268 176 l 268 743 b 390 833 268 801 307 833 l 1178 833 l 1178 978 l 390 978 b 83 742 168 978 83 882 l 83 236 b 390 0 83 96 168 0 z m 763 1049 l 907 1260 l 756 1260 l 671 1119 l 657 1119 l 572 1260 l 419 1260 l 563 1049 z "},"Ď":{"ha":1431,"x_min":0,"x_max":0,"o":"m 986 0 b 1347 279 1263 0 1347 96 l 1347 689 b 986 978 1347 882 1263 978 l 90 978 l 90 0 z m 1163 281 b 986 144 1163 176 1124 144 l 275 144 l 275 833 l 986 833 b 1163 689 1124 833 1163 801 z m 786 1049 l 931 1260 l 779 1260 l 694 1119 l 681 1119 l 596 1260 l 443 1260 l 586 1049 z "},"ď":{"ha":1431,"x_min":0,"x_max":0,"o":"m 986 0 b 1347 279 1263 0 1347 96 l 1347 689 b 986 978 1347 882 1263 978 l 90 978 l 90 0 z m 1163 281 b 986 144 1163 176 1124 144 l 275 144 l 275 833 l 986 833 b 1163 689 1124 833 1163 801 z m 786 1049 l 931 1260 l 779 1260 l 694 1119 l 681 1119 l 596 1260 l 443 1260 l 586 1049 z "},"Đ":{"ha":1431,"x_min":0,"x_max":0,"o":"m 986 0 b 1347 279 1263 0 1347 96 l 1347 689 b 986 978 1347 882 1263 978 l 90 978 l 90 589 l 0 589 l 0 444 l 90 444 l 90 0 z m 1163 281 b 986 144 1163 176 1124 144 l 275 144 l 275 444 l 721 444 l 721 589 l 275 589 l 275 833 l 986 833 b 1163 689 1124 833 1163 801 z "},"đ":{"ha":1431,"x_min":0,"x_max":0,"o":"m 986 0 b 1347 279 1263 0 1347 96 l 1347 689 b 986 978 1347 882 1263 978 l 90 978 l 90 589 l 0 589 l 0 444 l 90 444 l 90 0 z m 1163 281 b 986 144 1163 176 1124 144 l 275 144 l 275 444 l 721 444 l 721 589 l 275 589 l 275 833 l 986 833 b 1163 689 1124 833 1163 801 z "},"Ē":{"ha":1163,"x_min":0,"x_max":0,"o":"m 1096 0 l 1096 144 l 275 144 l 275 444 l 1054 444 l 1054 589 l 275 589 l 275 833 l 1096 833 l 1096 978 l 90 978 l 90 0 z m 822 1097 l 822 1213 l 367 1213 l 367 1097 z "},"ē":{"ha":1163,"x_min":0,"x_max":0,"o":"m 1096 0 l 1096 144 l 275 144 l 275 444 l 1054 444 l 1054 589 l 275 589 l 275 833 l 1096 833 l 1096 978 l 90 978 l 90 0 z m 822 1097 l 822 1213 l 367 1213 l 367 1097 z "},"Ė":{"ha":1163,"x_min":0,"x_max":0,"o":"m 1096 0 l 1096 144 l 275 144 l 275 444 l 1054 444 l 1054 589 l 275 589 l 275 833 l 1096 833 l 1096 978 l 90 978 l 90 0 z m 690 1094 l 690 1275 l 500 1275 l 500 1094 z "},"ė":{"ha":1163,"x_min":0,"x_max":0,"o":"m 1096 0 l 1096 144 l 275 144 l 275 444 l 1054 444 l 1054 589 l 275 589 l 275 833 l 1096 833 l 1096 978 l 90 978 l 90 0 z m 690 1094 l 690 1275 l 500 1275 l 500 1094 z "},"Ę":{"ha":1163,"x_min":0,"x_max":0,"o":"m 1096 -312 l 1096 -168 l 949 -168 b 921 -144 929 -168 921 -157 b 935 -117 921 -135 925 -124 l 1096 0 l 1096 144 l 275 144 l 275 444 l 1054 444 l 1054 589 l 275 589 l 275 833 l 1096 833 l 1096 978 l 90 978 l 90 0 l 972 0 l 863 -81 b 794 -201 817 -114 794 -160 b 925 -312 794 -261 840 -312 z "},"ę":{"ha":1163,"x_min":0,"x_max":0,"o":"m 1096 -312 l 1096 -168 l 949 -168 b 921 -144 929 -168 921 -157 b 935 -117 921 -135 925 -124 l 1096 0 l 1096 144 l 275 144 l 275 444 l 1054 444 l 1054 589 l 275 589 l 275 833 l 1096 833 l 1096 978 l 90 978 l 90 0 l 972 0 l 863 -81 b 794 -201 817 -114 794 -160 b 925 -312 794 -261 840 -312 z "},"Ě":{"ha":1163,"x_min":0,"x_max":0,"o":"m 1096 0 l 1096 144 l 275 144 l 275 444 l 1054 444 l 1054 589 l 275 589 l 275 833 l 1096 833 l 1096 978 l 90 978 l 90 0 z m 694 1049 l 839 1260 l 688 1260 l 603 1119 l 589 1119 l 504 1260 l 351 1260 l 494 1049 z "},"ě":{"ha":1163,"x_min":0,"x_max":0,"o":"m 1096 0 l 1096 144 l 275 144 l 275 444 l 1054 444 l 1054 589 l 275 589 l 275 833 l 1096 833 l 1096 978 l 90 978 l 90 0 z m 694 1049 l 839 1260 l 688 1260 l 603 1119 l 589 1119 l 504 1260 l 351 1260 l 494 1049 z "},"Ğ":{"ha":1293,"x_min":0,"x_max":0,"o":"m 864 0 b 1213 208 1096 0 1213 69 l 1213 533 l 1028 533 l 1028 208 b 864 144 1028 165 974 144 l 432 144 b 268 211 322 144 268 167 l 268 767 b 432 833 268 811 322 833 l 1197 833 l 1197 978 l 432 978 b 83 767 200 978 83 907 l 83 211 b 432 0 83 71 200 0 z m 711 1039 b 907 1250 856 1039 907 1178 l 756 1250 b 679 1124 756 1208 739 1124 l 657 1124 b 572 1250 590 1124 572 1208 l 419 1250 b 617 1039 419 1178 471 1039 z "},"ğ":{"ha":1293,"x_min":0,"x_max":0,"o":"m 864 0 b 1213 208 1096 0 1213 69 l 1213 533 l 1028 533 l 1028 208 b 864 144 1028 165 974 144 l 432 144 b 268 211 322 144 268 167 l 268 767 b 432 833 268 811 322 833 l 1197 833 l 1197 978 l 432 978 b 83 767 200 978 83 907 l 83 211 b 432 0 83 71 200 0 z m 711 1039 b 907 1250 856 1039 907 1178 l 756 1250 b 679 1124 756 1208 739 1124 l 657 1124 b 572 1250 590 1124 572 1208 l 419 1250 b 617 1039 419 1178 471 1039 z "},"Ġ":{"ha":1293,"x_min":0,"x_max":0,"o":"m 864 0 b 1213 208 1096 0 1213 69 l 1213 533 l 1028 533 l 1028 208 b 864 144 1028 165 974 144 l 432 144 b 268 211 322 144 268 167 l 268 767 b 432 833 268 811 322 833 l 1197 833 l 1197 978 l 432 978 b 83 767 200 978 83 907 l 83 211 b 432 0 83 71 200 0 z m 742 1094 l 742 1275 l 551 1275 l 551 1094 z "},"ġ":{"ha":1293,"x_min":0,"x_max":0,"o":"m 864 0 b 1213 208 1096 0 1213 69 l 1213 533 l 1028 533 l 1028 208 b 864 144 1028 165 974 144 l 432 144 b 268 211 322 144 268 167 l 268 767 b 432 833 268 811 322 833 l 1197 833 l 1197 978 l 432 978 b 83 767 200 978 83 907 l 83 211 b 432 0 83 71 200 0 z m 742 1094 l 742 1275 l 551 1275 l 551 1094 z "},"Ģ":{"ha":1293,"x_min":0,"x_max":0,"o":"m 864 0 b 1213 208 1096 0 1213 69 l 1213 533 l 1028 533 l 1028 208 b 864 144 1028 165 974 144 l 432 144 b 268 211 322 144 268 167 l 268 767 b 432 833 268 811 322 833 l 1197 833 l 1197 978 l 432 978 b 83 767 200 978 83 907 l 83 211 b 432 0 83 71 200 0 z m 625 -333 l 742 -135 l 742 -51 l 551 -51 l 551 -333 z "},"ģ":{"ha":1293,"x_min":0,"x_max":0,"o":"m 864 0 b 1213 208 1096 0 1213 69 l 1213 533 l 1028 533 l 1028 208 b 864 144 1028 165 974 144 l 432 144 b 268 211 322 144 268 167 l 268 767 b 432 833 268 811 322 833 l 1197 833 l 1197 978 l 432 978 b 83 767 200 978 83 907 l 83 211 b 432 0 83 71 200 0 z m 625 -333 l 742 -135 l 742 -51 l 551 -51 l 551 -333 z "},"Ħ":{"ha":1350,"x_min":0,"x_max":0,"o":"m 1260 0 l 1260 978 l 1075 978 l 1075 851 l 275 851 l 275 978 l 90 978 l 90 0 l 275 0 l 275 444 l 1075 444 l 1075 0 z m 275 589 l 275 736 l 1075 736 l 1075 589 z "},"ħ":{"ha":1350,"x_min":0,"x_max":0,"o":"m 1260 0 l 1260 978 l 1075 978 l 1075 851 l 275 851 l 275 978 l 90 978 l 90 0 l 275 0 l 275 444 l 1075 444 l 1075 0 z m 275 589 l 275 736 l 1075 736 l 1075 589 z "},"Ī":{"ha":379,"x_min":0,"x_max":0,"o":"m 282 0 l 282 978 l 97 978 l 97 0 z m 418 1097 l 418 1213 l -37 1213 l -37 1097 z "},"ī":{"ha":379,"x_min":0,"x_max":0,"o":"m 282 0 l 282 978 l 97 978 l 97 0 z m 418 1097 l 418 1213 l -37 1213 l -37 1097 z "},"Ĭ":{"ha":379,"x_min":0,"x_max":0,"o":"m 282 0 l 282 978 l 97 978 l 97 0 z m 238 1049 b 433 1260 382 1049 433 1188 l 282 1260 b 206 1133 282 1218 265 1133 l 183 1133 b 99 1260 117 1133 99 1218 l -54 1260 b 143 1049 -54 1188 -3 1049 z "},"ĭ":{"ha":379,"x_min":0,"x_max":0,"o":"m 282 0 l 282 978 l 97 978 l 97 0 z m 238 1049 b 433 1260 382 1049 433 1188 l 282 1260 b 206 1133 282 1218 265 1133 l 183 1133 b 99 1260 117 1133 99 1218 l -54 1260 b 143 1049 -54 1188 -3 1049 z "},"Į":{"ha":379,"x_min":0,"x_max":0,"o":"m 282 -312 l 282 -168 l 135 -168 b 107 -144 115 -168 107 -157 b 121 -117 107 -135 111 -124 l 282 0 l 282 978 l 97 978 l 97 0 l 158 0 l 49 -81 b -19 -201 3 -114 -19 -160 b 111 -312 -19 -261 26 -312 z "},"į":{"ha":379,"x_min":0,"x_max":0,"o":"m 282 -312 l 282 -168 l 135 -168 b 107 -144 115 -168 107 -157 b 121 -117 107 -135 111 -124 l 282 0 l 282 978 l 97 978 l 97 0 l 158 0 l 49 -81 b -19 -201 3 -114 -19 -160 b 111 -312 -19 -261 26 -312 z "},"İ":{"ha":379,"x_min":0,"x_max":0,"o":"m 282 0 l 282 978 l 97 978 l 97 0 z m 285 1094 l 285 1275 l 94 1275 l 94 1094 z "},"ı":{"ha":379,"x_min":0,"x_max":0,"o":"m 282 0 l 282 978 l 97 978 l 97 0 z "},"Ĳ":{"ha":1051,"x_min":0,"x_max":0,"o":"m 282 0 l 282 978 l 97 978 l 97 0 z m 660 0 b 965 208 876 0 965 88 l 965 978 l 781 978 l 781 208 b 660 144 781 165 744 144 l 392 144 l 392 0 z "},"ĳ":{"ha":1051,"x_min":0,"x_max":0,"o":"m 282 0 l 282 978 l 97 978 l 97 0 z m 660 0 b 965 208 876 0 965 88 l 965 978 l 781 978 l 781 208 b 660 144 781 165 744 144 l 392 144 l 392 0 z "},"Ķ":{"ha":1193,"x_min":0,"x_max":0,"o":"m 1175 0 l 742 522 l 1176 978 l 957 978 l 589 581 l 275 581 l 275 978 l 90 978 l 90 0 l 275 0 l 275 436 l 593 436 l 963 0 z m 575 -333 l 692 -135 l 692 -51 l 501 -51 l 501 -333 z "},"ķ":{"ha":1193,"x_min":0,"x_max":0,"o":"m 1175 0 l 742 522 l 1176 978 l 957 978 l 589 581 l 275 581 l 275 978 l 90 978 l 90 0 l 275 0 l 275 436 l 593 436 l 963 0 z m 575 -333 l 692 -135 l 692 -51 l 501 -51 l 501 -333 z "},"Ĺ":{"ha":1108,"x_min":0,"x_max":0,"o":"m 1069 0 l 1069 144 l 276 144 l 276 978 l 90 978 l 90 0 z m 447 1103 l 447 1260 l -7 1164 l -7 1049 z "},"ĺ":{"ha":1108,"x_min":0,"x_max":0,"o":"m 1069 0 l 1069 144 l 276 144 l 276 978 l 90 978 l 90 0 z m 447 1103 l 447 1260 l -7 1164 l -7 1049 z "},"Ļ":{"ha":1108,"x_min":0,"x_max":0,"o":"m 1069 0 l 1069 144 l 276 144 l 276 978 l 90 978 l 90 0 z m 553 -333 l 669 -135 l 669 -51 l 479 -51 l 479 -333 z "},"ļ":{"ha":1108,"x_min":0,"x_max":0,"o":"m 1069 0 l 1069 144 l 276 144 l 276 978 l 90 978 l 90 0 z m 553 -333 l 669 -135 l 669 -51 l 479 -51 l 479 -333 z "},"Ľ":{"ha":1108,"x_min":0,"x_max":0,"o":"m 1069 0 l 1069 144 l 276 144 l 276 978 l 90 978 l 90 0 z m 494 696 l 611 894 l 611 978 l 421 978 l 421 696 z "},"ľ":{"ha":1108,"x_min":0,"x_max":0,"o":"m 1069 0 l 1069 144 l 276 144 l 276 978 l 90 978 l 90 0 z m 494 696 l 611 894 l 611 978 l 421 978 l 421 696 z "},"Ł":{"ha":1125,"x_min":0,"x_max":0,"o":"m 1069 0 l 1069 144 l 276 144 l 276 406 l 629 542 l 629 697 l 276 561 l 276 978 l 90 978 l 90 0 z "},"ł":{"ha":1125,"x_min":0,"x_max":0,"o":"m 1069 0 l 1069 144 l 276 144 l 276 406 l 629 542 l 629 697 l 276 561 l 276 978 l 90 978 l 90 0 z "},"Ń":{"ha":1475,"x_min":0,"x_max":0,"o":"m 1385 0 l 1385 978 l 1224 978 l 1224 251 l 250 978 l 90 978 l 90 0 l 251 0 l 251 761 l 1294 0 z m 1006 1103 l 1006 1260 l 551 1164 l 551 1049 z "},"ń":{"ha":1475,"x_min":0,"x_max":0,"o":"m 1385 0 l 1385 978 l 1224 978 l 1224 251 l 250 978 l 90 978 l 90 0 l 251 0 l 251 761 l 1294 0 z m 1006 1103 l 1006 1260 l 551 1164 l 551 1049 z "},"Ņ":{"ha":1475,"x_min":0,"x_max":0,"o":"m 1385 0 l 1385 978 l 1224 978 l 1224 251 l 250 978 l 90 978 l 90 0 l 251 0 l 251 761 l 1294 0 z m 715 -333 l 832 -135 l 832 -51 l 642 -51 l 642 -333 z "},"ņ":{"ha":1475,"x_min":0,"x_max":0,"o":"m 1385 0 l 1385 978 l 1224 978 l 1224 251 l 250 978 l 90 978 l 90 0 l 251 0 l 251 761 l 1294 0 z m 715 -333 l 832 -135 l 832 -51 l 642 -51 l 642 -333 z "},"Ň":{"ha":1475,"x_min":0,"x_max":0,"o":"m 1385 0 l 1385 978 l 1224 978 l 1224 251 l 250 978 l 90 978 l 90 0 l 251 0 l 251 761 l 1294 0 z m 836 1049 l 981 1260 l 829 1260 l 744 1119 l 731 1119 l 646 1260 l 493 1260 l 636 1049 z "},"ň":{"ha":1475,"x_min":0,"x_max":0,"o":"m 1385 0 l 1385 978 l 1224 978 l 1224 251 l 250 978 l 90 978 l 90 0 l 251 0 l 251 761 l 1294 0 z m 836 1049 l 981 1260 l 829 1260 l 744 1119 l 731 1119 l 646 1260 l 493 1260 l 636 1049 z "},"Ŋ":{"ha":1475,"x_min":0,"x_max":0,"o":"m 1079 -333 b 1385 -125 1296 -333 1385 -246 l 1385 978 l 1224 978 l 1224 251 l 250 978 l 90 978 l 90 0 l 251 0 l 251 761 l 1224 51 l 1224 -125 b 1079 -189 1224 -168 1164 -189 l 811 -189 l 811 -333 z "},"ŋ":{"ha":1475,"x_min":0,"x_max":0,"o":"m 1079 -333 b 1385 -125 1296 -333 1385 -246 l 1385 978 l 1224 978 l 1224 251 l 250 978 l 90 978 l 90 0 l 251 0 l 251 761 l 1224 51 l 1224 -125 b 1079 -189 1224 -168 1164 -189 l 811 -189 l 811 -333 z "},"Ō":{"ha":1426,"x_min":0,"x_max":0,"o":"m 1036 0 b 1343 236 1258 0 1343 96 l 1343 742 b 1036 978 1343 882 1258 978 l 390 978 b 83 742 168 978 83 882 l 83 236 b 390 0 83 96 168 0 z m 1158 235 b 1036 144 1158 176 1119 144 l 390 144 b 268 235 307 144 268 176 l 268 743 b 390 833 268 801 307 833 l 1036 833 b 1158 743 1119 833 1158 801 z m 940 1097 l 940 1213 l 485 1213 l 485 1097 z "},"ō":{"ha":1426,"x_min":0,"x_max":0,"o":"m 1036 0 b 1343 236 1258 0 1343 96 l 1343 742 b 1036 978 1343 882 1258 978 l 390 978 b 83 742 168 978 83 882 l 83 236 b 390 0 83 96 168 0 z m 1158 235 b 1036 144 1158 176 1119 144 l 390 144 b 268 235 307 144 268 176 l 268 743 b 390 833 268 801 307 833 l 1036 833 b 1158 743 1119 833 1158 801 z m 940 1097 l 940 1213 l 485 1213 l 485 1097 z "},"Ő":{"ha":1426,"x_min":0,"x_max":0,"o":"m 1036 0 b 1343 236 1258 0 1343 96 l 1343 742 b 1036 978 1343 882 1258 978 l 390 978 b 83 742 168 978 83 882 l 83 236 b 390 0 83 96 168 0 z m 1158 235 b 1036 144 1158 176 1119 144 l 390 144 b 268 235 307 144 268 176 l 268 743 b 390 833 268 801 307 833 l 1036 833 b 1158 743 1119 833 1158 801 z m 865 1063 l 1017 1260 l 826 1260 l 750 1063 z m 586 1063 l 739 1260 l 546 1260 l 472 1063 z "},"ő":{"ha":1426,"x_min":0,"x_max":0,"o":"m 1036 0 b 1343 236 1258 0 1343 96 l 1343 742 b 1036 978 1343 882 1258 978 l 390 978 b 83 742 168 978 83 882 l 83 236 b 390 0 83 96 168 0 z m 1158 235 b 1036 144 1158 176 1119 144 l 390 144 b 268 235 307 144 268 176 l 268 743 b 390 833 268 801 307 833 l 1036 833 b 1158 743 1119 833 1158 801 z m 865 1063 l 1017 1260 l 826 1260 l 750 1063 z m 586 1063 l 739 1260 l 546 1260 l 472 1063 z "},"Œ":{"ha":2022,"x_min":0,"x_max":0,"o":"m 1956 0 l 1956 144 l 1135 144 l 1135 444 l 1914 444 l 1914 589 l 1135 589 l 1135 833 l 1956 833 l 1956 978 l 390 978 b 83 742 168 978 83 882 l 83 236 b 390 0 83 96 168 0 z m 950 144 l 390 144 b 268 235 307 144 268 176 l 268 743 b 390 833 268 801 307 833 l 950 833 z "},"œ":{"ha":2022,"x_min":0,"x_max":0,"o":"m 1956 0 l 1956 144 l 1135 144 l 1135 444 l 1914 444 l 1914 589 l 1135 589 l 1135 833 l 1956 833 l 1956 978 l 390 978 b 83 742 168 978 83 882 l 83 236 b 390 0 83 96 168 0 z m 950 144 l 390 144 b 268 235 307 144 268 176 l 268 743 b 390 833 268 801 307 833 l 950 833 z "},"Ŕ":{"ha":1286,"x_min":0,"x_max":0,"o":"m 1217 0 l 986 439 b 1228 672 1160 456 1228 546 l 1228 742 b 921 978 1228 882 1143 978 l 90 978 l 90 0 l 275 0 l 275 436 l 790 436 l 1019 0 z m 1043 671 b 921 581 1043 613 1004 581 l 275 581 l 275 833 l 921 833 b 1043 743 1004 833 1043 801 z m 883 1103 l 883 1260 l 429 1164 l 429 1049 z "},"ŕ":{"ha":1286,"x_min":0,"x_max":0,"o":"m 1217 0 l 986 439 b 1228 672 1160 456 1228 546 l 1228 742 b 921 978 1228 882 1143 978 l 90 978 l 90 0 l 275 0 l 275 436 l 790 436 l 1019 0 z m 1043 671 b 921 581 1043 613 1004 581 l 275 581 l 275 833 l 921 833 b 1043 743 1004 833 1043 801 z m 883 1103 l 883 1260 l 429 1164 l 429 1049 z "},"Ŗ":{"ha":1286,"x_min":0,"x_max":0,"o":"m 1217 0 l 986 439 b 1228 672 1160 456 1228 546 l 1228 742 b 921 978 1228 882 1143 978 l 90 978 l 90 0 l 275 0 l 275 436 l 790 436 l 1019 0 z m 1043 671 b 921 581 1043 613 1004 581 l 275 581 l 275 833 l 921 833 b 1043 743 1004 833 1043 801 z m 621 -333 l 738 -135 l 738 -51 l 547 -51 l 547 -333 z "},"ŗ":{"ha":1286,"x_min":0,"x_max":0,"o":"m 1217 0 l 986 439 b 1228 672 1160 456 1228 546 l 1228 742 b 921 978 1228 882 1143 978 l 90 978 l 90 0 l 275 0 l 275 436 l 790 436 l 1019 0 z m 1043 671 b 921 581 1043 613 1004 581 l 275 581 l 275 833 l 921 833 b 1043 743 1004 833 1043 801 z m 621 -333 l 738 -135 l 738 -51 l 547 -51 l 547 -333 z "},"Ř":{"ha":1286,"x_min":0,"x_max":0,"o":"m 1217 0 l 986 439 b 1228 672 1160 456 1228 546 l 1228 742 b 921 978 1228 882 1143 978 l 90 978 l 90 0 l 275 0 l 275 436 l 790 436 l 1019 0 z m 1043 671 b 921 581 1043 613 1004 581 l 275 581 l 275 833 l 921 833 b 1043 743 1004 833 1043 801 z m 728 1049 l 872 1260 l 721 1260 l 636 1119 l 622 1119 l 538 1260 l 385 1260 l 528 1049 z "},"ř":{"ha":1286,"x_min":0,"x_max":0,"o":"m 1217 0 l 986 439 b 1228 672 1160 456 1228 546 l 1228 742 b 921 978 1228 882 1143 978 l 90 978 l 90 0 l 275 0 l 275 436 l 790 436 l 1019 0 z m 1043 671 b 921 581 1043 613 1004 581 l 275 581 l 275 833 l 921 833 b 1043 743 1004 833 1043 801 z m 728 1049 l 872 1260 l 721 1260 l 636 1119 l 622 1119 l 538 1260 l 385 1260 l 528 1049 z "},"Ś":{"ha":1321,"x_min":0,"x_max":0,"o":"m 953 0 b 1260 236 1175 0 1260 96 l 1260 357 b 953 593 1260 497 1175 593 l 378 593 b 256 683 294 593 256 625 l 256 743 b 378 833 256 801 294 833 l 1206 833 l 1206 978 l 378 978 b 71 742 156 978 71 882 l 71 685 b 378 449 71 544 156 449 l 953 449 b 1075 358 1036 449 1075 417 l 1075 235 b 953 144 1075 176 1036 144 l 103 144 l 103 0 z m 929 1103 l 929 1260 l 475 1164 l 475 1049 z "},"ś":{"ha":1321,"x_min":0,"x_max":0,"o":"m 953 0 b 1260 236 1175 0 1260 96 l 1260 357 b 953 593 1260 497 1175 593 l 378 593 b 256 683 294 593 256 625 l 256 743 b 378 833 256 801 294 833 l 1206 833 l 1206 978 l 378 978 b 71 742 156 978 71 882 l 71 685 b 378 449 71 544 156 449 l 953 449 b 1075 358 1036 449 1075 417 l 1075 235 b 953 144 1075 176 1036 144 l 103 144 l 103 0 z m 929 1103 l 929 1260 l 475 1164 l 475 1049 z "},"Ş":{"ha":1321,"x_min":0,"x_max":0,"o":"m 953 0 b 1260 236 1175 0 1260 96 l 1260 357 b 953 593 1260 497 1175 593 l 378 593 b 256 683 294 593 256 625 l 256 743 b 378 833 256 801 294 833 l 1206 833 l 1206 978 l 378 978 b 71 742 156 978 71 882 l 71 685 b 378 449 71 544 156 449 l 953 449 b 1075 358 1036 449 1075 417 l 1075 235 b 953 144 1075 176 1036 144 l 103 144 l 103 0 z m 639 -333 l 756 -135 l 756 -51 l 565 -51 l 565 -333 z "},"ş":{"ha":1321,"x_min":0,"x_max":0,"o":"m 953 0 b 1260 236 1175 0 1260 96 l 1260 357 b 953 593 1260 497 1175 593 l 378 593 b 256 683 294 593 256 625 l 256 743 b 378 833 256 801 294 833 l 1206 833 l 1206 978 l 378 978 b 71 742 156 978 71 882 l 71 685 b 378 449 71 544 156 449 l 953 449 b 1075 358 1036 449 1075 417 l 1075 235 b 953 144 1075 176 1036 144 l 103 144 l 103 0 z m 639 -333 l 756 -135 l 756 -51 l 565 -51 l 565 -333 z "},"Š":{"ha":1321,"x_min":0,"x_max":0,"o":"m 953 0 b 1260 236 1175 0 1260 96 l 1260 357 b 953 593 1260 497 1175 593 l 378 593 b 256 683 294 593 256 625 l 256 743 b 378 833 256 801 294 833 l 1206 833 l 1206 978 l 378 978 b 71 742 156 978 71 882 l 71 685 b 378 449 71 544 156 449 l 953 449 b 1075 358 1036 449 1075 417 l 1075 235 b 953 144 1075 176 1036 144 l 103 144 l 103 0 z m 774 1049 l 918 1260 l 767 1260 l 682 1119 l 668 1119 l 583 1260 l 431 1260 l 574 1049 z "},"š":{"ha":1321,"x_min":0,"x_max":0,"o":"m 953 0 b 1260 236 1175 0 1260 96 l 1260 357 b 953 593 1260 497 1175 593 l 378 593 b 256 683 294 593 256 625 l 256 743 b 378 833 256 801 294 833 l 1206 833 l 1206 978 l 378 978 b 71 742 156 978 71 882 l 71 685 b 378 449 71 544 156 449 l 953 449 b 1075 358 1036 449 1075 417 l 1075 235 b 953 144 1075 176 1036 144 l 103 144 l 103 0 z m 774 1049 l 918 1260 l 767 1260 l 682 1119 l 668 1119 l 583 1260 l 431 1260 l 574 1049 z "},"Ť":{"ha":1261,"x_min":0,"x_max":0,"o":"m 729 0 l 729 833 l 1228 833 l 1228 978 l 32 978 l 32 833 l 544 833 l 544 0 z m 729 1049 l 874 1260 l 722 1260 l 638 1119 l 624 1119 l 539 1260 l 386 1260 l 529 1049 z "},"ť":{"ha":1261,"x_min":0,"x_max":0,"o":"m 729 0 l 729 833 l 1228 833 l 1228 978 l 32 978 l 32 833 l 544 833 l 544 0 z m 729 1049 l 874 1260 l 722 1260 l 638 1119 l 624 1119 l 539 1260 l 386 1260 l 529 1049 z "},"Ŧ":{"ha":1261,"x_min":0,"x_max":0,"o":"m 729 0 l 729 363 l 946 363 l 946 517 l 729 517 l 729 833 l 1228 833 l 1228 978 l 32 978 l 32 833 l 544 833 l 544 517 l 315 517 l 315 363 l 544 363 l 544 0 z "},"ŧ":{"ha":1261,"x_min":0,"x_max":0,"o":"m 729 0 l 729 363 l 946 363 l 946 517 l 729 517 l 729 833 l 1228 833 l 1228 978 l 32 978 l 32 833 l 544 833 l 544 517 l 315 517 l 315 363 l 544 363 l 544 0 z "},"Ũ":{"ha":1393,"x_min":0,"x_max":0,"o":"m 1039 0 b 1307 236 1261 0 1307 96 l 1307 978 l 1122 978 l 1122 235 b 1000 144 1122 176 1083 144 l 393 144 b 271 235 310 144 271 176 l 271 978 l 86 978 l 86 236 b 393 0 86 96 171 0 z m 924 1228 b 807 1178 897 1200 854 1178 b 585 1236 728 1178 665 1236 b 468 1194 539 1236 497 1224 l 468 1079 b 585 1129 493 1107 538 1129 b 807 1072 665 1129 729 1072 b 924 1114 853 1072 894 1083 z "},"ũ":{"ha":1393,"x_min":0,"x_max":0,"o":"m 1039 0 b 1307 236 1261 0 1307 96 l 1307 978 l 1122 978 l 1122 235 b 1000 144 1122 176 1083 144 l 393 144 b 271 235 310 144 271 176 l 271 978 l 86 978 l 86 236 b 393 0 86 96 171 0 z m 924 1228 b 807 1178 897 1200 854 1178 b 585 1236 728 1178 665 1236 b 468 1194 539 1236 497 1224 l 468 1079 b 585 1129 493 1107 538 1129 b 807 1072 665 1129 729 1072 b 924 1114 853 1072 894 1083 z "},"Ū":{"ha":1393,"x_min":0,"x_max":0,"o":"m 1039 0 b 1307 236 1261 0 1307 96 l 1307 978 l 1122 978 l 1122 235 b 1000 144 1122 176 1083 144 l 393 144 b 271 235 310 144 271 176 l 271 978 l 86 978 l 86 236 b 393 0 86 96 171 0 z m 924 1097 l 924 1213 l 468 1213 l 468 1097 z "},"ū":{"ha":1393,"x_min":0,"x_max":0,"o":"m 1039 0 b 1307 236 1261 0 1307 96 l 1307 978 l 1122 978 l 1122 235 b 1000 144 1122 176 1083 144 l 393 144 b 271 235 310 144 271 176 l 271 978 l 86 978 l 86 236 b 393 0 86 96 171 0 z m 924 1097 l 924 1213 l 468 1213 l 468 1097 z "},"Ŭ":{"ha":1393,"x_min":0,"x_max":0,"o":"m 1039 0 b 1307 236 1261 0 1307 96 l 1307 978 l 1122 978 l 1122 235 b 1000 144 1122 176 1083 144 l 393 144 b 271 235 310 144 271 176 l 271 978 l 86 978 l 86 236 b 393 0 86 96 171 0 z m 744 1049 b 940 1260 889 1049 940 1188 l 789 1260 b 713 1133 789 1218 772 1133 l 690 1133 b 606 1260 624 1133 606 1218 l 453 1260 b 650 1049 453 1188 504 1049 z "},"ŭ":{"ha":1393,"x_min":0,"x_max":0,"o":"m 1039 0 b 1307 236 1261 0 1307 96 l 1307 978 l 1122 978 l 1122 235 b 1000 144 1122 176 1083 144 l 393 144 b 271 235 310 144 271 176 l 271 978 l 86 978 l 86 236 b 393 0 86 96 171 0 z m 744 1049 b 940 1260 889 1049 940 1188 l 789 1260 b 713 1133 789 1218 772 1133 l 690 1133 b 606 1260 624 1133 606 1218 l 453 1260 b 650 1049 453 1188 504 1049 z "},"Ů":{"ha":1393,"x_min":0,"x_max":0,"o":"m 1039 0 b 1307 236 1261 0 1307 96 l 1307 978 l 1122 978 l 1122 235 b 1000 144 1122 176 1083 144 l 393 144 b 271 235 310 144 271 176 l 271 978 l 86 978 l 86 236 b 393 0 86 96 171 0 z m 811 1171 b 767 1126 811 1142 796 1126 l 622 1126 b 579 1171 593 1126 579 1142 l 579 1206 b 622 1250 579 1235 593 1250 l 767 1250 b 811 1206 796 1250 811 1235 z m 917 1207 b 757 1329 917 1289 864 1329 l 632 1329 b 475 1207 528 1329 475 1289 l 475 1169 b 632 1049 475 1089 528 1049 l 757 1049 b 917 1169 864 1049 917 1089 z "},"ů":{"ha":1393,"x_min":0,"x_max":0,"o":"m 1039 0 b 1307 236 1261 0 1307 96 l 1307 978 l 1122 978 l 1122 235 b 1000 144 1122 176 1083 144 l 393 144 b 271 235 310 144 271 176 l 271 978 l 86 978 l 86 236 b 393 0 86 96 171 0 z m 811 1171 b 767 1126 811 1142 796 1126 l 622 1126 b 579 1171 593 1126 579 1142 l 579 1206 b 622 1250 579 1235 593 1250 l 767 1250 b 811 1206 796 1250 811 1235 z m 917 1207 b 757 1329 917 1289 864 1329 l 632 1329 b 475 1207 528 1329 475 1289 l 475 1169 b 632 1049 475 1089 528 1049 l 757 1049 b 917 1169 864 1049 917 1089 z "},"Ű":{"ha":1393,"x_min":0,"x_max":0,"o":"m 1039 0 b 1307 236 1261 0 1307 96 l 1307 978 l 1122 978 l 1122 235 b 1000 144 1122 176 1083 144 l 393 144 b 271 235 310 144 271 176 l 271 978 l 86 978 l 86 236 b 393 0 86 96 171 0 z m 865 1063 l 1017 1260 l 826 1260 l 750 1063 z m 586 1063 l 739 1260 l 546 1260 l 472 1063 z "},"ű":{"ha":1393,"x_min":0,"x_max":0,"o":"m 1039 0 b 1307 236 1261 0 1307 96 l 1307 978 l 1122 978 l 1122 235 b 1000 144 1122 176 1083 144 l 393 144 b 271 235 310 144 271 176 l 271 978 l 86 978 l 86 236 b 393 0 86 96 171 0 z m 865 1063 l 1017 1260 l 826 1260 l 750 1063 z m 586 1063 l 739 1260 l 546 1260 l 472 1063 z "},"Ų":{"ha":1393,"x_min":0,"x_max":0,"o":"m 847 -312 l 847 -168 l 700 -168 b 672 -144 681 -168 672 -157 b 686 -117 672 -135 676 -124 l 847 0 l 1039 0 b 1307 236 1261 0 1307 96 l 1307 978 l 1122 978 l 1122 235 b 1000 144 1122 176 1083 144 l 393 144 b 271 235 310 144 271 176 l 271 978 l 86 978 l 86 236 b 393 0 86 96 171 0 l 724 0 l 614 -81 b 546 -201 568 -114 546 -160 b 676 -312 546 -261 592 -312 z "},"ų":{"ha":1393,"x_min":0,"x_max":0,"o":"m 847 -312 l 847 -168 l 700 -168 b 672 -144 681 -168 672 -157 b 686 -117 672 -135 676 -124 l 847 0 l 1039 0 b 1307 236 1261 0 1307 96 l 1307 978 l 1122 978 l 1122 235 b 1000 144 1122 176 1083 144 l 393 144 b 271 235 310 144 271 176 l 271 978 l 86 978 l 86 236 b 393 0 86 96 171 0 l 724 0 l 614 -81 b 546 -201 568 -114 546 -160 b 676 -312 546 -261 592 -312 z "},"Ŵ":{"ha":1860,"x_min":0,"x_max":0,"o":"m 1408 0 l 1860 978 l 1681 978 l 1338 228 l 999 978 l 861 978 l 518 228 l 178 978 l 0 978 l 450 0 l 585 0 l 931 750 l 1269 0 z m 1174 1049 l 1031 1260 l 831 1260 l 686 1049 l 839 1049 l 922 1189 l 936 1189 l 1022 1049 z "},"ŵ":{"ha":1860,"x_min":0,"x_max":0,"o":"m 1408 0 l 1860 978 l 1681 978 l 1338 228 l 999 978 l 861 978 l 518 228 l 178 978 l 0 978 l 450 0 l 585 0 l 931 750 l 1269 0 z m 1174 1049 l 1031 1260 l 831 1260 l 686 1049 l 839 1049 l 922 1189 l 936 1189 l 1022 1049 z "},"Ŷ":{"ha":1436,"x_min":0,"x_max":0,"o":"m 813 0 l 813 397 l 1436 978 l 1203 978 l 719 531 l 236 978 l 0 978 l 628 397 l 628 0 z m 963 1049 l 819 1260 l 619 1260 l 475 1049 l 628 1049 l 711 1189 l 725 1189 l 811 1049 z "},"ŷ":{"ha":1436,"x_min":0,"x_max":0,"o":"m 813 0 l 813 397 l 1436 978 l 1203 978 l 719 531 l 236 978 l 0 978 l 628 397 l 628 0 z m 963 1049 l 819 1260 l 619 1260 l 475 1049 l 628 1049 l 711 1189 l 725 1189 l 811 1049 z "},"Ÿ":{"ha":1436,"x_min":0,"x_max":0,"o":"m 813 0 l 813 397 l 1436 978 l 1203 978 l 719 531 l 236 978 l 0 978 l 628 397 l 628 0 z m 624 1094 l 624 1275 l 433 1275 l 433 1094 z m 1001 1094 l 1001 1275 l 811 1275 l 811 1094 z "},"Ź":{"ha":1432,"x_min":0,"x_max":0,"o":"m 1381 0 l 1381 158 l 388 158 l 1381 853 l 1381 978 l 67 978 l 67 819 l 1056 819 l 67 125 l 67 0 z m 985 1103 l 985 1260 l 531 1164 l 531 1049 z "},"ź":{"ha":1432,"x_min":0,"x_max":0,"o":"m 1381 0 l 1381 158 l 388 158 l 1381 853 l 1381 978 l 67 978 l 67 819 l 1056 819 l 67 125 l 67 0 z m 985 1103 l 985 1260 l 531 1164 l 531 1049 z "},"Ż":{"ha":1432,"x_min":0,"x_max":0,"o":"m 1381 0 l 1381 158 l 388 158 l 1381 853 l 1381 978 l 67 978 l 67 819 l 1056 819 l 67 125 l 67 0 z m 811 1094 l 811 1275 l 621 1275 l 621 1094 z "},"ż":{"ha":1432,"x_min":0,"x_max":0,"o":"m 1381 0 l 1381 158 l 388 158 l 1381 853 l 1381 978 l 67 978 l 67 819 l 1056 819 l 67 125 l 67 0 z m 811 1094 l 811 1275 l 621 1275 l 621 1094 z "},"Ž":{"ha":1432,"x_min":0,"x_max":0,"o":"m 1381 0 l 1381 158 l 388 158 l 1381 853 l 1381 978 l 67 978 l 67 819 l 1056 819 l 67 125 l 67 0 z m 801 1049 l 946 1260 l 794 1260 l 710 1119 l 696 1119 l 611 1260 l 458 1260 l 601 1049 z "},"ž":{"ha":1432,"x_min":0,"x_max":0,"o":"m 1381 0 l 1381 158 l 388 158 l 1381 853 l 1381 978 l 67 978 l 67 819 l 1056 819 l 67 125 l 67 0 z m 801 1049 l 946 1260 l 794 1260 l 710 1119 l 696 1119 l 611 1260 l 458 1260 l 601 1049 z "},"ƒ":{"ha":1447,"x_min":0,"x_max":0,"o":"m 1440 0 l 794 978 l 660 978 l 10 0 l 208 0 l 388 278 l 1063 278 l 1242 0 z m 969 422 l 483 422 l 728 799 z "},"Ș":{"ha":1321,"x_min":0,"x_max":0,"o":"m 953 0 b 1260 236 1175 0 1260 96 l 1260 357 b 953 593 1260 497 1175 593 l 378 593 b 256 683 294 593 256 625 l 256 743 b 378 833 256 801 294 833 l 1206 833 l 1206 978 l 378 978 b 71 742 156 978 71 882 l 71 685 b 378 449 71 544 156 449 l 953 449 b 1075 358 1036 449 1075 417 l 1075 235 b 953 144 1075 176 1036 144 l 103 144 l 103 0 z m 639 -333 l 756 -135 l 756 -51 l 565 -51 l 565 -333 z "},"ș":{"ha":1321,"x_min":0,"x_max":0,"o":"m 953 0 b 1260 236 1175 0 1260 96 l 1260 357 b 953 593 1260 497 1175 593 l 378 593 b 256 683 294 593 256 625 l 256 743 b 378 833 256 801 294 833 l 1206 833 l 1206 978 l 378 978 b 71 742 156 978 71 882 l 71 685 b 378 449 71 544 156 449 l 953 449 b 1075 358 1036 449 1075 417 l 1075 235 b 953 144 1075 176 1036 144 l 103 144 l 103 0 z m 639 -333 l 756 -135 l 756 -51 l 565 -51 l 565 -333 z "},"Ț":{"ha":1261,"x_min":0,"x_max":0,"o":"m 729 0 l 729 833 l 1228 833 l 1228 978 l 32 978 l 32 833 l 544 833 l 544 0 z m 608 -333 l 725 -135 l 725 -51 l 535 -51 l 535 -333 z "},"ț":{"ha":1261,"x_min":0,"x_max":0,"o":"m 729 0 l 729 833 l 1228 833 l 1228 978 l 32 978 l 32 833 l 544 833 l 544 0 z m 608 -333 l 725 -135 l 725 -51 l 535 -51 l 535 -333 z "},"ˆ":{"ha":626,"x_min":0,"x_max":0,"o":"m 557 1049 l 414 1260 l 214 1260 l 69 1049 l 222 1049 l 306 1189 l 319 1189 l 406 1049 z "},"ˇ":{"ha":626,"x_min":0,"x_max":0,"o":"m 413 1049 l 557 1260 l 406 1260 l 321 1119 l 307 1119 l 222 1260 l 69 1260 l 213 1049 z "},"˘":{"ha":626,"x_min":0,"x_max":0,"o":"m 361 1049 b 557 1260 506 1049 557 1188 l 406 1260 b 329 1133 406 1218 389 1133 l 307 1133 b 222 1260 240 1133 222 1218 l 69 1260 b 267 1049 69 1188 121 1049 z "},"˙":{"ha":329,"x_min":0,"x_max":0,"o":"m 260 1094 l 260 1275 l 69 1275 l 69 1094 z "},"˚":{"ha":581,"x_min":0,"x_max":0,"o":"m 406 1171 b 361 1126 406 1142 390 1126 l 217 1126 b 174 1171 188 1126 174 1142 l 174 1206 b 217 1250 174 1235 188 1250 l 361 1250 b 406 1206 390 1250 406 1235 z m 511 1207 b 351 1329 511 1289 458 1329 l 226 1329 b 69 1207 122 1329 69 1289 l 69 1169 b 226 1049 69 1089 122 1049 l 351 1049 b 511 1169 458 1049 511 1089 z "},"˛":{"ha":349,"x_min":0,"x_max":0,"o":"m 349 -312 l 349 -168 l 201 -168 b 174 -144 182 -168 174 -157 b 188 -117 174 -135 178 -124 l 349 0 l 225 0 l 115 -81 b 47 -201 69 -114 47 -160 b 178 -312 47 -261 93 -312 z "},"˜":{"ha":594,"x_min":0,"x_max":0,"o":"m 525 1228 b 408 1178 499 1200 456 1178 b 186 1236 329 1178 267 1236 b 69 1194 140 1236 99 1224 l 69 1079 b 186 1129 94 1107 139 1129 b 408 1072 267 1129 331 1072 b 525 1114 454 1072 496 1083 z "},"˝":{"ha":683,"x_min":0,"x_max":0,"o":"m 463 1063 l 614 1260 l 424 1260 l 347 1063 z m 183 1063 l 336 1260 l 143 1260 l 69 1063 z "},"̦":{"ha":329,"x_min":0,"x_max":0,"o":"m 143 -333 l 260 -135 l 260 -51 l 69 -51 l 69 -333 z "},"Ẁ":{"ha":1860,"x_min":0,"x_max":0,"o":"m 1408 0 l 1860 978 l 1681 978 l 1338 228 l 999 978 l 861 978 l 518 228 l 178 978 l 0 978 l 450 0 l 585 0 l 931 750 l 1269 0 z m 1115 1049 l 1115 1164 l 660 1260 l 660 1103 z "},"ẁ":{"ha":1860,"x_min":0,"x_max":0,"o":"m 1408 0 l 1860 978 l 1681 978 l 1338 228 l 999 978 l 861 978 l 518 228 l 178 978 l 0 978 l 450 0 l 585 0 l 931 750 l 1269 0 z m 1115 1049 l 1115 1164 l 660 1260 l 660 1103 z "},"Ẃ":{"ha":1860,"x_min":0,"x_max":0,"o":"m 1408 0 l 1860 978 l 1681 978 l 1338 228 l 999 978 l 861 978 l 518 228 l 178 978 l 0 978 l 450 0 l 585 0 l 931 750 l 1269 0 z m 1199 1103 l 1199 1260 l 744 1164 l 744 1049 z "},"ẃ":{"ha":1860,"x_min":0,"x_max":0,"o":"m 1408 0 l 1860 978 l 1681 978 l 1338 228 l 999 978 l 861 978 l 518 228 l 178 978 l 0 978 l 450 0 l 585 0 l 931 750 l 1269 0 z m 1199 1103 l 1199 1260 l 744 1164 l 744 1049 z "},"Ẅ":{"ha":1860,"x_min":0,"x_max":0,"o":"m 1408 0 l 1860 978 l 1681 978 l 1338 228 l 999 978 l 861 978 l 518 228 l 178 978 l 0 978 l 450 0 l 585 0 l 931 750 l 1269 0 z m 836 1094 l 836 1275 l 646 1275 l 646 1094 z m 1214 1094 l 1214 1275 l 1024 1275 l 1024 1094 z "},"ẅ":{"ha":1860,"x_min":0,"x_max":0,"o":"m 1408 0 l 1860 978 l 1681 978 l 1338 228 l 999 978 l 861 978 l 518 228 l 178 978 l 0 978 l 450 0 l 585 0 l 931 750 l 1269 0 z m 836 1094 l 836 1275 l 646 1275 l 646 1094 z m 1214 1094 l 1214 1275 l 1024 1275 l 1024 1094 z "},"Ỳ":{"ha":1436,"x_min":0,"x_max":0,"o":"m 813 0 l 813 397 l 1436 978 l 1203 978 l 719 531 l 236 978 l 0 978 l 628 397 l 628 0 z m 904 1049 l 904 1164 l 449 1260 l 449 1103 z "},"ỳ":{"ha":1436,"x_min":0,"x_max":0,"o":"m 813 0 l 813 397 l 1436 978 l 1203 978 l 719 531 l 236 978 l 0 978 l 628 397 l 628 0 z m 904 1049 l 904 1164 l 449 1260 l 449 1103 z "},"–":{"ha":951,"x_min":0,"x_max":0,"o":"m 921 446 l 921 600 l 29 600 l 29 446 z "},"—":{"ha":1647,"x_min":0,"x_max":0,"o":"m 1617 446 l 1617 600 l 29 600 l 29 446 z "},"‘":{"ha":368,"x_min":0,"x_max":0,"o":"m 274 696 l 274 978 l 83 978 l 83 894 l 200 696 z "},"’":{"ha":368,"x_min":0,"x_max":0,"o":"m 157 696 l 274 894 l 274 978 l 83 978 l 83 696 z "},"‚":{"ha":368,"x_min":0,"x_max":0,"o":"m 157 -101 l 274 97 l 274 181 l 83 181 l 83 -101 z "},"“":{"ha":632,"x_min":0,"x_max":0,"o":"m 538 696 l 538 978 l 347 978 l 347 894 l 464 696 z m 274 696 l 274 978 l 83 978 l 83 894 l 200 696 z "},"”":{"ha":632,"x_min":0,"x_max":0,"o":"m 157 696 l 274 894 l 274 978 l 83 978 l 83 696 z m 421 696 l 538 894 l 538 978 l 347 978 l 347 696 z "},"„":{"ha":632,"x_min":0,"x_max":0,"o":"m 157 -101 l 274 97 l 274 181 l 83 181 l 83 -101 z m 421 -101 l 538 97 l 538 181 l 347 181 l 347 -101 z "},"†":{"ha":600,"x_min":0,"x_max":0,"o":"m 343 0 l 343 649 l 506 649 l 506 746 l 343 746 l 343 978 l 246 978 l 246 746 l 83 746 l 83 649 l 246 649 l 246 0 z "},"‡":{"ha":600,"x_min":0,"x_max":0,"o":"m 343 0 l 343 232 l 506 232 l 506 329 l 343 329 l 343 649 l 506 649 l 506 746 l 343 746 l 343 978 l 246 978 l 246 746 l 83 746 l 83 649 l 246 649 l 246 329 l 83 329 l 83 232 l 246 232 l 246 0 z "},"•":{"ha":517,"x_min":0,"x_max":0,"o":"m 440 496 b 261 675 440 596 361 675 b 83 496 161 675 83 596 b 261 318 83 396 161 318 b 440 496 361 318 440 396 z "},"…":{"ha":1188,"x_min":0,"x_max":0,"o":"m 301 0 l 301 181 l 83 181 l 83 0 z m 697 0 l 697 181 l 479 181 l 479 0 z m 1093 0 l 1093 181 l 875 181 l 875 0 z "},"‰":{"ha":2011,"x_min":0,"x_max":0,"o":"m 467 503 b 619 621 578 503 619 550 l 619 874 b 467 992 619 943 578 992 l 236 992 b 83 874 125 992 83 943 l 83 621 b 236 503 83 550 125 503 z m 528 619 b 467 575 528 590 508 575 l 236 575 b 175 619 194 575 175 590 l 175 874 b 236 919 175 903 194 919 l 467 919 b 528 874 508 919 528 903 z m 250 -42 l 1256 1033 l 1140 1033 l 136 -42 z m 1156 -14 b 1308 104 1267 -14 1308 33 l 1308 357 b 1156 475 1308 426 1267 475 l 925 475 b 772 357 814 475 772 426 l 772 104 b 925 -14 772 33 814 -14 z m 1217 103 b 1156 58 1217 74 1197 58 l 925 58 b 864 103 883 58 864 74 l 864 357 b 925 403 864 386 883 403 l 1156 403 b 1217 357 1197 403 1217 386 z m 1775 -14 b 1928 104 1886 -14 1928 33 l 1928 357 b 1775 475 1928 426 1886 475 l 1544 475 b 1392 357 1433 475 1392 426 l 1392 104 b 1544 -14 1392 33 1433 -14 z m 1836 103 b 1775 58 1836 74 1817 58 l 1544 58 b 1483 103 1503 58 1483 74 l 1483 357 b 1544 403 1483 386 1503 403 l 1775 403 b 1836 357 1817 403 1836 386 z "},"‹":{"ha":475,"x_min":0,"x_max":0,"o":"m 403 267 l 403 385 l 193 504 l 403 622 l 403 742 l 72 551 l 72 460 z "},"›":{"ha":475,"x_min":0,"x_max":0,"o":"m 403 460 l 403 551 l 72 742 l 72 622 l 282 504 l 72 385 l 72 267 z "},"⁄":{"ha":306,"x_min":0,"x_max":0,"o":"m -293 -42 l 713 1033 l 597 1033 l -407 -42 z "},"⁰":{"ha":661,"x_min":0,"x_max":0,"o":"m 446 503 b 599 621 557 503 599 550 l 599 874 b 446 992 599 943 557 992 l 215 992 b 63 874 104 992 63 943 l 63 621 b 215 503 63 550 104 503 z m 507 619 b 446 575 507 590 488 575 l 215 575 b 154 619 174 575 154 590 l 154 874 b 215 919 154 903 174 919 l 446 919 b 507 874 488 919 507 903 z "},"⁴":{"ha":653,"x_min":0,"x_max":0,"o":"m 565 503 l 565 586 l 617 586 l 617 658 l 565 658 l 565 992 l 472 992 l 472 658 l 142 658 l 390 992 l 290 992 l 32 644 l 32 586 l 472 586 l 472 503 z "},"⁵":{"ha":621,"x_min":0,"x_max":0,"o":"m 413 503 b 565 621 524 503 565 550 l 565 707 b 413 825 565 776 524 825 l 156 825 l 156 919 l 550 919 l 550 992 l 63 992 l 63 753 l 413 753 b 474 707 454 753 474 736 l 474 619 b 413 575 474 590 454 575 l 63 575 l 63 503 z "},"⁶":{"ha":676,"x_min":0,"x_max":0,"o":"m 463 503 b 617 621 574 503 617 550 l 617 700 b 463 818 617 769 574 818 l 154 818 l 154 874 b 215 919 154 903 174 919 l 593 919 l 593 992 l 215 992 b 63 874 104 992 63 943 l 63 621 b 215 503 63 550 104 503 z m 524 619 b 463 575 524 590 504 575 l 215 575 b 154 619 174 575 154 590 l 154 746 l 463 746 b 524 700 504 746 524 729 z "},"⁷":{"ha":625,"x_min":0,"x_max":0,"o":"m 265 503 l 590 933 l 590 992 l 43 992 l 43 919 l 486 919 l 160 503 z "},"⁸":{"ha":681,"x_min":0,"x_max":0,"o":"m 464 503 b 618 608 585 503 618 553 l 618 688 b 554 768 618 735 592 758 b 613 849 589 775 613 807 l 613 886 b 463 992 613 951 571 992 l 218 992 b 68 886 110 992 68 951 l 68 849 b 126 768 68 807 92 775 b 63 688 89 758 63 735 l 63 608 b 217 503 63 553 96 503 z m 526 625 b 464 575 526 586 500 575 l 217 575 b 154 625 181 575 154 586 l 154 686 b 217 728 154 717 181 728 l 464 728 b 526 686 500 728 526 717 z m 519 839 b 463 800 519 811 506 800 l 218 800 b 161 839 175 800 161 811 l 161 881 b 218 919 161 908 175 919 l 463 919 b 519 881 506 919 519 908 z "},"⁹":{"ha":679,"x_min":0,"x_max":0,"o":"m 463 503 b 617 621 574 503 617 550 l 617 874 b 463 992 617 943 574 992 l 215 992 b 63 874 104 992 63 943 l 63 807 b 215 689 63 736 104 689 l 524 689 l 524 619 b 463 575 524 590 504 575 l 89 575 l 89 503 z m 524 761 l 215 761 b 154 806 174 761 154 776 l 154 874 b 215 919 154 903 174 919 l 463 919 b 524 874 504 919 524 903 z "},"₀":{"ha":661,"x_min":0,"x_max":0,"o":"m 446 -14 b 599 104 557 -14 599 33 l 599 357 b 446 475 599 426 557 475 l 215 475 b 63 357 104 475 63 426 l 63 104 b 215 -14 63 33 104 -14 z m 507 103 b 446 58 507 74 488 58 l 215 58 b 154 103 174 58 154 74 l 154 357 b 215 403 154 386 174 403 l 446 403 b 507 357 488 403 507 386 z "},"₁":{"ha":314,"x_min":0,"x_max":0,"o":"m 247 -14 l 247 475 l 119 475 l 24 367 l 121 367 l 156 406 l 156 -14 z "},"₂":{"ha":624,"x_min":0,"x_max":0,"o":"m 563 -14 l 563 58 l 150 58 l 150 165 b 211 210 150 194 169 210 l 410 210 b 563 328 521 210 563 258 l 563 357 b 410 475 563 426 521 475 l 83 475 l 83 403 l 410 403 b 471 357 451 403 471 386 l 471 328 b 410 282 471 299 451 282 l 211 282 b 57 164 100 282 57 235 l 57 -14 z "},"₃":{"ha":603,"x_min":0,"x_max":0,"o":"m 386 -14 b 540 92 507 -14 540 36 l 540 171 b 476 251 540 218 514 242 b 535 332 511 258 535 290 l 535 369 b 385 475 535 435 493 475 l 58 475 l 58 403 l 385 403 b 442 364 428 403 442 392 l 442 322 b 385 283 442 294 428 283 l 79 283 l 79 211 l 386 211 b 449 169 422 211 449 200 l 449 108 b 386 58 449 69 422 58 l 58 58 l 58 -14 z "},"₄":{"ha":653,"x_min":0,"x_max":0,"o":"m 565 -14 l 565 69 l 617 69 l 617 142 l 565 142 l 565 475 l 472 475 l 472 142 l 142 142 l 390 475 l 290 475 l 32 128 l 32 69 l 472 69 l 472 -14 z "},"₅":{"ha":621,"x_min":0,"x_max":0,"o":"m 413 -14 b 565 104 524 -14 565 33 l 565 190 b 413 308 565 260 524 308 l 156 308 l 156 403 l 550 403 l 550 475 l 63 475 l 63 236 l 413 236 b 474 190 454 236 474 219 l 474 103 b 413 58 474 74 454 58 l 63 58 l 63 -14 z "},"₆":{"ha":676,"x_min":0,"x_max":0,"o":"m 463 -14 b 617 104 574 -14 617 33 l 617 183 b 463 301 617 253 574 301 l 154 301 l 154 357 b 215 403 154 386 174 403 l 593 403 l 593 475 l 215 475 b 63 357 104 475 63 426 l 63 104 b 215 -14 63 33 104 -14 z m 524 103 b 463 58 524 74 504 58 l 215 58 b 154 103 174 58 154 74 l 154 229 l 463 229 b 524 183 504 229 524 213 z "},"₇":{"ha":625,"x_min":0,"x_max":0,"o":"m 265 -14 l 590 417 l 590 475 l 43 475 l 43 403 l 486 403 l 160 -14 z "},"₈":{"ha":681,"x_min":0,"x_max":0,"o":"m 464 -14 b 618 92 585 -14 618 36 l 618 171 b 554 251 618 218 592 242 b 613 332 589 258 613 290 l 613 369 b 463 475 613 435 571 475 l 218 475 b 68 369 110 475 68 435 l 68 332 b 126 251 68 290 92 258 b 63 171 89 242 63 218 l 63 92 b 217 -14 63 36 96 -14 z m 526 108 b 464 58 526 69 500 58 l 217 58 b 154 108 181 58 154 69 l 154 169 b 217 211 154 200 181 211 l 464 211 b 526 169 500 211 526 200 z m 519 322 b 463 283 519 294 506 283 l 218 283 b 161 322 175 283 161 294 l 161 364 b 218 403 161 392 175 403 l 463 403 b 519 364 506 403 519 392 z "},"₉":{"ha":679,"x_min":0,"x_max":0,"o":"m 463 -14 b 617 104 574 -14 617 33 l 617 357 b 463 475 617 426 574 475 l 215 475 b 63 357 104 475 63 426 l 63 290 b 215 172 63 219 104 172 l 524 172 l 524 103 b 463 58 524 74 504 58 l 89 58 l 89 -14 z m 524 244 l 215 244 b 154 289 174 244 154 260 l 154 357 b 215 403 154 386 174 403 l 463 403 b 524 357 504 403 524 386 z "},"€":{"ha":1044,"x_min":0,"x_max":0,"o":"m 974 0 l 974 144 l 489 144 b 325 211 379 144 325 167 l 325 306 l 668 306 l 728 436 l 325 436 l 325 542 l 776 542 l 836 672 l 325 672 l 325 767 b 489 833 325 811 379 833 l 910 833 l 976 978 l 489 978 b 140 767 257 978 140 907 l 140 672 l 38 672 l 10 542 l 140 542 l 140 436 l 38 436 l 10 306 l 140 306 l 140 211 b 489 0 140 71 257 0 z "},"™":{"ha":888,"x_min":0,"x_max":0,"o":"m 268 511 l 268 878 l 376 878 l 376 978 l 68 978 l 68 878 l 178 878 l 178 511 z m 797 511 l 797 978 l 715 978 l 610 717 l 504 978 l 422 978 l 422 511 l 511 511 l 511 685 l 610 511 l 706 686 l 706 511 z "},"⅓":{"ha":1419,"x_min":0,"x_max":0,"o":"m 451 503 l 451 992 l 324 992 l 228 883 l 325 883 l 360 922 l 360 503 z m 197 -42 l 1203 1033 l 1088 1033 l 83 -42 z m 1182 -14 b 1336 92 1303 -14 1336 36 l 1336 171 b 1272 251 1336 218 1310 242 b 1331 332 1307 258 1331 290 l 1331 369 b 1181 475 1331 435 1289 475 l 854 475 l 854 403 l 1181 403 b 1238 364 1224 403 1238 392 l 1238 322 b 1181 283 1238 294 1224 283 l 875 283 l 875 211 l 1182 211 b 1244 169 1218 211 1244 200 l 1244 108 b 1182 58 1244 69 1218 58 l 854 58 l 854 -14 z "},"⅔":{"ha":1385,"x_min":0,"x_max":0,"o":"m 589 503 l 589 575 l 176 575 l 176 682 b 238 726 176 711 196 726 l 436 726 b 589 844 547 726 589 775 l 589 874 b 436 992 589 943 547 992 l 110 992 l 110 919 l 436 919 b 497 874 478 919 497 903 l 497 844 b 436 799 497 815 478 799 l 238 799 b 83 681 126 799 83 751 l 83 503 z m 246 -42 l 1251 1033 l 1136 1033 l 132 -42 z m 1147 -14 b 1301 92 1268 -14 1301 36 l 1301 171 b 1238 251 1301 218 1275 242 b 1296 332 1272 258 1296 290 l 1296 369 b 1146 475 1296 435 1254 475 l 819 475 l 819 403 l 1146 403 b 1203 364 1189 403 1203 392 l 1203 322 b 1146 283 1203 294 1189 283 l 840 283 l 840 211 l 1147 211 b 1210 169 1183 211 1210 200 l 1210 108 b 1147 58 1210 69 1183 58 l 819 58 l 819 -14 z "},"⅛":{"ha":1469,"x_min":0,"x_max":0,"o":"m 451 503 l 451 992 l 324 992 l 228 883 l 325 883 l 360 922 l 360 503 z m 197 -42 l 1203 1033 l 1088 1033 l 83 -42 z m 1232 -14 b 1386 92 1353 -14 1386 36 l 1386 171 b 1322 251 1386 218 1360 242 b 1381 332 1357 258 1381 290 l 1381 369 b 1231 475 1381 435 1339 475 l 986 475 b 836 369 878 475 836 435 l 836 332 b 894 251 836 290 860 258 b 831 171 857 242 831 218 l 831 92 b 985 -14 831 36 864 -14 z m 1294 108 b 1232 58 1294 69 1268 58 l 985 58 b 922 108 949 58 922 69 l 922 169 b 985 211 922 200 949 211 l 1232 211 b 1294 169 1268 211 1294 200 z m 1288 322 b 1231 283 1288 294 1274 283 l 986 283 b 929 322 943 283 929 294 l 929 364 b 986 403 929 392 943 403 l 1231 403 b 1288 364 1274 403 1288 392 z "},"⅜":{"ha":1413,"x_min":0,"x_max":0,"o":"m 411 503 b 565 608 532 503 565 553 l 565 688 b 501 768 565 735 539 758 b 560 849 536 775 560 807 l 560 886 b 410 992 560 951 518 992 l 83 992 l 83 919 l 410 919 b 467 881 453 919 467 908 l 467 839 b 410 800 467 811 453 800 l 104 800 l 104 728 l 411 728 b 474 686 447 728 474 717 l 474 625 b 411 575 474 586 447 575 l 83 575 l 83 503 z m 224 -42 l 1229 1033 l 1114 1033 l 110 -42 z m 1175 -14 b 1329 92 1296 -14 1329 36 l 1329 171 b 1265 251 1329 218 1303 242 b 1324 332 1300 258 1324 290 l 1324 369 b 1174 475 1324 435 1282 475 l 929 475 b 779 369 821 475 779 435 l 779 332 b 838 251 779 290 803 258 b 774 171 800 242 774 218 l 774 92 b 928 -14 774 36 807 -14 z m 1238 108 b 1175 58 1238 69 1211 58 l 928 58 b 865 108 892 58 865 69 l 865 169 b 928 211 865 200 892 211 l 1175 211 b 1238 169 1211 211 1238 200 z m 1231 322 b 1174 283 1231 294 1217 283 l 929 283 b 872 322 886 283 872 294 l 872 364 b 929 403 872 392 886 403 l 1174 403 b 1231 364 1217 403 1231 392 z "},"⅝":{"ha":1413,"x_min":0,"x_max":0,"o":"m 433 503 b 586 621 544 503 586 550 l 586 707 b 433 825 586 776 544 825 l 176 825 l 176 919 l 571 919 l 571 992 l 83 992 l 83 753 l 433 753 b 494 707 475 753 494 736 l 494 619 b 433 575 494 590 475 575 l 83 575 l 83 503 z m 238 -42 l 1243 1033 l 1128 1033 l 124 -42 z m 1175 -14 b 1329 92 1296 -14 1329 36 l 1329 171 b 1265 251 1329 218 1303 242 b 1324 332 1300 258 1324 290 l 1324 369 b 1174 475 1324 435 1282 475 l 929 475 b 779 369 821 475 779 435 l 779 332 b 838 251 779 290 803 258 b 774 171 800 242 774 218 l 774 92 b 928 -14 774 36 807 -14 z m 1238 108 b 1175 58 1238 69 1211 58 l 928 58 b 865 108 892 58 865 69 l 865 169 b 928 211 865 200 892 211 l 1175 211 b 1238 169 1211 211 1238 200 z m 1231 322 b 1174 283 1231 294 1217 283 l 929 283 b 872 322 886 283 872 294 l 872 364 b 929 403 872 392 886 403 l 1174 403 b 1231 364 1217 403 1231 392 z "},"⅞":{"ha":1442,"x_min":0,"x_max":0,"o":"m 311 503 l 636 933 l 636 992 l 89 992 l 89 919 l 532 919 l 206 503 z m 197 -42 l 1203 1033 l 1088 1033 l 83 -42 z m 1204 -14 b 1358 92 1325 -14 1358 36 l 1358 171 b 1294 251 1358 218 1332 242 b 1353 332 1329 258 1353 290 l 1353 369 b 1203 475 1353 435 1311 475 l 958 475 b 808 369 850 475 808 435 l 808 332 b 867 251 808 290 832 258 b 803 171 829 242 803 218 l 803 92 b 957 -14 803 36 836 -14 z m 1267 108 b 1204 58 1267 69 1240 58 l 957 58 b 894 108 921 58 894 69 l 894 169 b 957 211 894 200 921 211 l 1204 211 b 1267 169 1240 211 1267 200 z m 1260 322 b 1203 283 1260 294 1246 283 l 958 283 b 901 322 915 283 901 294 l 901 364 b 958 403 901 392 915 403 l 1203 403 b 1260 364 1246 403 1260 392 z "},"−":{"ha":754,"x_min":0,"x_max":0,"o":"m 697 453 l 697 556 l 56 556 l 56 453 z "},"≈":{"ha":754,"x_min":0,"x_max":0,"o":"m 697 400 b 533 363 660 379 600 363 b 219 407 421 363 333 407 b 56 375 156 407 97 397 l 56 289 b 219 326 90 310 153 326 b 533 283 333 326 424 283 b 697 315 597 283 656 292 z m 697 733 b 533 696 660 713 600 696 b 219 740 421 696 333 740 b 56 708 156 740 97 731 l 56 622 b 219 660 90 643 153 660 b 533 617 333 660 424 617 b 697 649 597 617 656 625 z "},"≠":{"ha":746,"x_min":0,"x_max":0,"o":"m -74 -42 l 258 314 l 697 314 l 697 417 l 354 417 l 518 592 l 697 592 l 697 694 l 614 694 l 932 1033 l 817 1033 l 500 694 l 56 694 l 56 592 l 404 592 l 240 417 l 56 417 l 56 314 l 144 314 l -187 -42 z "},"≤":{"ha":746,"x_min":0,"x_max":0,"o":"m 657 128 l 657 249 l 208 504 l 657 758 l 657 879 l 88 551 l 88 460 z m 697 0 l 697 103 l 56 103 l 56 0 z "},"≥":{"ha":746,"x_min":0,"x_max":0,"o":"m 657 460 l 657 551 l 88 879 l 88 758 l 536 504 l 88 249 l 88 128 z m 697 0 l 697 103 l 56 103 l 56 0 z "},"△":{"ha":1082,"x_min":0,"x_max":0,"o":"m 1051 264 l 542 742 l 31 264 z "},"′":{"ha":310,"x_min":0,"x_max":0,"o":"m 93 528 l 289 978 l 118 978 l 21 528 z "},"″":{"ha":619,"x_min":0,"x_max":0,"o":"m 93 528 l 289 978 l 118 978 l 21 528 z m 403 528 l 599 978 l 428 978 l 331 528 z "}}}
